SplineFontDB: 3.0
FontName: Bodoni-11-Fatface-Italic
FullName: Bodoni* 11 Fatface Italic
FamilyName: Bodoni* 11 Fatface
Weight: Fatface
Copyright: Copyright (c) 2020, indestructible type* (https://github.com/indestructible-type)
Version: 002.1
ItalicAngle: -13
UnderlinePosition: -200
UnderlineWidth: 0
Ascent: 1600
Descent: 400
InvalidEm: 0
LayerCount: 2
Layer: 0 0 "Back" 1
Layer: 1 0 "Fore" 0
PreferredKerning: 4
XUID: [1021 31 -699969567 16487490]
FSType: 0
OS2Version: 0
OS2_WeightWidthSlopeOnly: 0
OS2_UseTypoMetrics: 1
CreationTime: 1460762150
ModificationTime: 1580245805
PfmFamily: 17
TTFWeight: 900
TTFWidth: 5
LineGap: 0
VLineGap: 0
OS2TypoAscent: 2000
OS2TypoAOffset: 0
OS2TypoDescent: -800
OS2TypoDOffset: 0
OS2TypoLinegap: 0
OS2WinAscent: 2000
OS2WinAOffset: 0
OS2WinDescent: 800
OS2WinDOffset: 0
HheadAscent: 2000
HheadAOffset: 0
HheadDescent: -800
HheadDOffset: 0
OS2CapHeight: 1500
OS2XHeight: 920
OS2FamilyClass: 768
OS2Vendor: 'it* '
OS2UnicodeRanges: 00000001.00000000.00000000.00000000
Lookup: 1 0 0 "'ss04' Style Set 4 lookup 5" { "'ss04' Style Set 4 lookup 5-1"  } ['ss04' ('DFLT' <'dflt' > 'grek' <'dflt' > 'latn' <'dflt' > ) ]
Lookup: 1 0 0 "'ss02' Style Set 2 lookup 4" { "'ss02' Style Set 2 lookup 4-1"  } ['ss02' ('DFLT' <'dflt' > 'grek' <'dflt' > 'latn' <'dflt' > ) ]
Lookup: 1 0 0 "'ss03' Style Set 3 lookup 5" { "'ss03' Style Set 3 lookup 5-1"  } ['ss03' ('DFLT' <'dflt' > 'grek' <'dflt' > 'latn' <'dflt' > ) ]
Lookup: 1 0 0 "'ss01' Style Set 1 lookup 2" { "'ss01' Style Set 1 lookup 2-1"  } ['ss01' ('DFLT' <'dflt' > 'grek' <'dflt' > 'latn' <'dflt' > ) ]
Lookup: 5 0 0 "'calt' Contextual Alternates lookup 3" { "'calt' Contextual Alternates lookup 3-1"  } ['calt' ('DFLT' <'dflt' > 'grek' <'dflt' > 'latn' <'dflt' > ) ]
Lookup: 4 0 1 "'liga' Standard Ligatures lookup 0" { "'liga' Standard Ligatures lookup 0-1"  } ['liga' ('DFLT' <'dflt' > 'grek' <'dflt' > 'latn' <'dflt' > ) ]

StartChar: ampersand
Encoding: 38 38 0
GlifName: ampersand
Width: 1777
Flags: HMW
LayerCount: 2
Fore
SplineSet
894 976 m 17
 959 1071 982 1169 982 1256 c 0
 982 1369 974 1486 908 1486 c 0
 840 1486 826 1366 826 1240 c 0
 826 1170 850 1054 924 940 c 2
 1392 190 l 2
 1446 104 1484 52 1564 52 c 0
 1626 52 1668 80 1708 150 c 1
 1738 140 l 1
 1700 52 1618 -20 1420 -20 c 0
 1274 -20 1102 6 942 242 c 2
 488 940 l 2
 432 1022 416 1096 416 1166 c 0
 416 1366 666 1520 938 1520 c 0
 1112 1520 1370 1450 1370 1250 c 4
 1370 1026 1015 964 907 939 c 5
 894 976 l 17
574 816 m 9
 602 797 l 1
 498 708 460 524 460 399 c 0
 460 121 690 72 858 72 c 0
 1212 72 1626 362 1654 640 c 2
 1658 674 l 17
 1634 546 1550 470 1442 470 c 0
 1322 470 1236 574 1236 684 c 0
 1236 804 1346 898 1460 898 c 0
 1576 898 1698 804 1698 652 c 0
 1698 372 1268 -20 618 -20 c 0
 352 -20 40 48 40 329 c 0
 40 596 275 723 574 816 c 9
EndSplineSet
EndChar

StartChar: period
Encoding: 46 46 1
GlifName: period
Width: 639
Flags: HMW
LayerCount: 2
Fore
SplineSet
80 220 m 4
 80 352 188 460 320 460 c 4
 452 460 560 352 560 220 c 4
 560 88 452 -20 320 -20 c 4
 188 -20 80 88 80 220 c 4
EndSplineSet
EndChar

StartChar: zero
Encoding: 48 48 2
GlifName: zero
Width: 1399
Flags: HMW
LayerCount: 2
Fore
SplineSet
964 1520 m 0
 1260 1520 1446 1290 1446 1032 c 0
 1446 454 1046 -20 624 -20 c 0
 328 -20 142 210 142 468 c 0
 142 1046 542 1520 964 1520 c 0
964 1486 m 0
 742 1486 538 510 538 188 c 0
 538 76 550 14 624 14 c 4
 846 14 1050 1030 1050 1312 c 0
 1050 1424 1038 1486 964 1486 c 0
EndSplineSet
EndChar

StartChar: one
Encoding: 49 49 3
GlifName: one
Width: 1109
VWidth: 2309
Flags: HMW
LayerCount: 2
Fore
SplineSet
-80 40 m 1
 790 40 l 5
 790 0 l 5
 -80 0 l 1
 -80 40 l 1
470 1460 m 1
 244 1460 l 1
 244 1500 l 1
 910 1500 l 5
 570 0 l 5
 140 0 l 1
 470 1460 l 1
EndSplineSet
EndChar

StartChar: two
Encoding: 50 50 4
GlifName: two
Width: 1319
VWidth: 2309
Flags: HMW
LayerCount: 2
Fore
SplineSet
248 1120 m 1
 270 1186 358 1264 452 1264 c 0
 576 1264 664 1178 664 1062 c 0
 664 922 534 824 424 824 c 0
 314 824 190 894 190 1058 c 0
 190 1292 476 1520 830 1520 c 0
 1032 1520 1294 1460 1294 1200 c 4
 1294 940 862 752 662 630 c 6
 318 420 l 5
 1126 420 l 1
 1162 570 l 1
 1202 570 l 1
 1068 0 l 1
 -82 0 l 1
 -14 270 l 1
 476 572 l 2
 720 722 850 1008 850 1196 c 0
 850 1344 782 1418 626 1418 c 0
 458 1418 266 1260 248 1120 c 1
EndSplineSet
EndChar

StartChar: three
Encoding: 51 51 5
GlifName: three
Width: 1261
VWidth: 2309
Flags: HMW
LayerCount: 2
Fore
SplineSet
280 1200 m 0
 280 1384 498 1518 742 1518 c 0
 1004 1518 1282 1444 1282 1204 c 4
 1282 944 958 802 496 802 c 1
 496 830 l 1
 814 830 860 1174 860 1302 c 0
 860 1450 810 1474 692 1474 c 0
 604 1474 502 1438 434 1390 c 1
 442 1392 478 1398 514 1398 c 0
 632 1398 708 1298 708 1188 c 0
 708 1068 604 976 494 976 c 0
 374 976 280 1078 280 1200 c 0
10 362 m 0
 10 504 100 602 230 602 c 0
 350 602 438 502 438 390 c 0
 438 266 342 180 224 180 c 0
 182 180 124 190 100 204 c 1
 142 128 252 22 442 22 c 0
 680 22 740 372 740 560 c 0
 740 708 674 792 496 792 c 1
 496 820 l 1
 918 820 1162 720 1162 480 c 0
 1162 140 784 -20 462 -20 c 0
 158 -20 10 198 10 362 c 0
EndSplineSet
EndChar

StartChar: four
Encoding: 52 52 6
GlifName: four
Width: 1451
VWidth: 2309
Flags: HMW
LayerCount: 2
Fore
SplineSet
1200 40 m 5
 1200 0 l 5
 430 0 l 5
 430 40 l 5
 1200 40 l 5
1432 1500 m 5
 1030 0 l 5
 600 0 l 5
 926 1308 l 5
 158 450 l 5
 1350 450 l 5
 1350 410 l 5
 70 410 l 5
 1052 1500 l 5
 1432 1500 l 5
EndSplineSet
Substitution2: "'ss03' Style Set 3 lookup 5-1" four.alt
EndChar

StartChar: five
Encoding: 53 53 7
GlifName: five
Width: 1253
VWidth: 2309
Flags: HMW
LayerCount: 2
Fore
SplineSet
1172 540 m 0
 1172 160 734 -20 432 -20 c 4
 148 -20 0 134 0 318 c 4
 0 440 94 542 214 542 c 0
 324 542 428 450 428 330 c 0
 428 200 332 120 214 120 c 0
 152 120 116 140 100 146 c 5
 160 74 244 16 412 16 c 0
 670 16 742 412 742 640 c 0
 742 788 670 826 572 826 c 0
 462 826 330 780 260 694 c 1
 222 694 l 1
 294 808 474 880 656 880 c 0
 938 880 1172 800 1172 540 c 0
1242 1080 m 1
 376 1080 l 1
 242 694 l 1
 206 694 l 1
 474 1500 l 1
 1298 1500 l 1
 1324 1610 l 1
 1364 1610 l 1
 1242 1080 l 1
EndSplineSet
EndChar

StartChar: six
Encoding: 54 54 8
GlifName: six
Width: 1319
VWidth: 2309
Flags: HMW
LayerCount: 2
Fore
SplineSet
840 780 m 0
 840 888 828 922 780 922 c 4
 634 922 506 380 506 160 c 1
 462 160 l 1
 462 394 528 990 850 990 c 4
 1052 990 1280 880 1280 600 c 0
 1280 220 910 -20 568 -20 c 0
 306 -20 100 120 100 440 c 0
 100 946 644 1520 1330 1520 c 1
 1330 1486 l 1
 862 1486 510 744 510 480 c 1
 506 160 l 1
 506 72 530 20 582 20 c 0
 722 20 840 572 840 780 c 0
EndSplineSet
EndChar

StartChar: seven
Encoding: 55 55 9
GlifName: seven
Width: 1215
VWidth: 2309
Flags: HMW
LayerCount: 2
Fore
SplineSet
272 212 m 4
 272 410 514 534 702 728 c 0
 832 862 884 920 1006 1070 c 1
 304 1070 l 1
 270 920 l 1
 230 920 l 1
 362 1500 l 1
 1416 1500 l 1
 1416 1500 1062 1052 834 804 c 0
 682 640 628 594 628 504 c 0
 628 418 752 348 752 216 c 4
 752 82 652 -20 504 -20 c 4
 376 -20 272 54 272 212 c 4
EndSplineSet
EndChar

StartChar: eight
Encoding: 56 56 10
GlifName: eight
Width: 1339
VWidth: 2309
Flags: HMW
LayerCount: 2
Fore
SplineSet
660 900 m 0
 660 852 662 790 704 790 c 0
 822 790 920 1192 920 1380 c 0
 920 1408 918 1480 866 1480 c 0
 788 1480 660 1088 660 900 c 0
240 1050 m 0
 240 1290 528 1520 870 1520 c 0
 1172 1520 1340 1350 1340 1190 c 0
 1340 930 992 760 710 760 c 0
 468 760 240 890 240 1050 c 0
460 160 m 0
 460 72 472 20 530 20 c 0
 668 20 780 412 780 600 c 0
 780 688 768 750 710 750 c 0
 572 750 460 348 460 160 c 0
60 300 m 0
 60 540 268 780 670 780 c 0
 1012 780 1200 660 1200 460 c 0
 1200 220 992 -20 590 -20 c 0
 248 -20 60 100 60 300 c 0
EndSplineSet
EndChar

StartChar: A
Encoding: 65 65 12
GlifName: A_
Width: 1639
Flags: HMW
LayerCount: 2
Fore
SplineSet
-100 40 m 5
 340 40 l 5
 340 0 l 5
 -100 0 l 5
 -100 40 l 5
680 40 m 5
 1500 40 l 5
 1500 0 l 5
 680 0 l 5
 680 40 l 5
360 510 m 5
 1020 510 l 5
 1020 470 l 5
 360 470 l 5
 360 510 l 5
788 1200 m 5
 98 0 l 5
 48 0 l 5
 930 1530 l 5
 1170 1530 l 5
 1360 0 l 5
 910 0 l 5
 788 1200 l 5
EndSplineSet
EndChar

StartChar: B
Encoding: 66 66 13
GlifName: B_
Width: 1479
Flags: HMW
LayerCount: 2
Fore
SplineSet
640 0 m 2
 -100 0 l 1
 -100 40 l 1
 640 40 l 2
 782 40 920 222 920 520 c 0
 920 698 864 750 752 750 c 2
 540 750 l 1
 540 780 l 1
 812 780 l 2
 1094 780 1380 700 1380 440 c 0
 1380 140 1002 0 640 0 c 2
430 1500 m 1
 860 1500 l 1
 510 0 l 1
 80 0 l 1
 430 1500 l 1
780 760 m 2
 540 760 l 1
 540 790 l 1
 780 790 l 2
 932 790 1050 1012 1050 1270 c 0
 1050 1388 1012 1460 920 1460 c 2
 250 1460 l 1
 250 1500 l 1
 930 1500 l 2
 1292 1500 1490 1410 1490 1170 c 4
 1490 890 1102 760 780 760 c 2
EndSplineSet
EndChar

StartChar: C
Encoding: 67 67 14
GlifName: C_
Width: 1455
Flags: HMW
LayerCount: 2
Fore
SplineSet
710 -20 m 0
 344 -20 100 184 100 510 c 0
 100 1056 504 1520 1010 1520 c 0
 1286 1520 1424 1316 1480 1030 c 1
 1440 1030 l 1
 1358 1334 1218 1460 1090 1460 c 0
 722 1460 540 714 540 350 c 0
 540 166 558 36 766 36 c 0
 974 36 1150 266 1330 470 c 1
 1370 470 l 1
 1210 224 996 -20 710 -20 c 0
1440 1030 m 1
 1414 1214 l 1
 1384 1264 1347 1307 1310 1350 c 1
 1556 1500 l 1
 1586 1500 l 1
 1480 1030 l 1
 1440 1030 l 1
1330 470 m 1
 1370 470 l 1
 1260 0 l 1
 1230 0 l 1
 1050 140 l 1
 1111 185 1169 232 1220 286 c 1
 1330 470 l 1
EndSplineSet
EndChar

StartChar: D
Encoding: 68 68 15
GlifName: D_
Width: 1639
Flags: HMW
LayerCount: 2
Fore
SplineSet
440 1500 m 1
 870 1500 l 1
 530 0 l 1
 100 0 l 1
 440 1500 l 1
730 0 m 2
 -80 0 l 1
 -80 40 l 1
 650 40 l 2
 1018 40 1182 806 1182 1130 c 4
 1182 1314 1158 1460 970 1460 c 2
 240 1460 l 1
 240 1500 l 1
 1030 1500 l 2
 1356 1500 1640 1336 1640 950 c 0
 1640 464 1276 0 730 0 c 2
EndSplineSet
EndChar

StartChar: E
Encoding: 69 69 16
GlifName: E_
Width: 1317
Flags: HMW
LayerCount: 2
Fore
SplineSet
238 1500 m 5
 1468 1500 l 5
 1372 1090 l 5
 1332 1090 l 5
 1322 1304 1212 1460 978 1460 c 6
 238 1460 l 5
 238 1500 l 5
418 1500 m 1
 848 1500 l 1
 500 0 l 1
 70 0 l 1
 418 1500 l 1
716 756 m 6
 594 756 l 5
 594 796 l 5
 716 796 l 6
 830 796 952 912 1042 1046 c 5
 1082 1046 l 5
 954 496 l 5
 914 496 l 5
 884 630 830 756 716 756 c 6
1140 0 m 5
 -100 0 l 5
 -100 40 l 5
 630 40 l 6
 904 40 1086 196 1204 450 c 5
 1244 450 l 5
 1140 0 l 5
EndSplineSet
EndChar

StartChar: F
Encoding: 70 70 17
GlifName: F_
Width: 1257
Flags: HMW
LayerCount: 2
Fore
SplineSet
678 726 m 6
 608 726 l 1
 608 766 l 1
 678 766 l 6
 810 766 930 892 1016 1026 c 5
 1056 1026 l 1
 926 456 l 1
 886 456 l 1
 856 590 812 726 678 726 c 6
-100 40 m 1
 700 40 l 1
 700 0 l 1
 -100 0 l 1
 -100 40 l 1
418 1500 m 1
 848 1500 l 1
 500 0 l 1
 70 0 l 1
 418 1500 l 1
238 1500 m 1
 1428 1500 l 1
 1332 1090 l 1
 1292 1090 l 1
 1282 1304 1192 1460 958 1460 c 2
 238 1460 l 1
 238 1500 l 1
EndSplineSet
EndChar

StartChar: G
Encoding: 71 71 18
GlifName: G_
Width: 1665
Flags: HMW
LayerCount: 2
Fore
SplineSet
1056 560 m 1
 1504 560 l 1
 1444 330 l 1
 1354 204 1036 -20 710 -20 c 0
 364 -20 100 144 100 510 c 0
 100 1096 584 1520 1070 1520 c 0
 1346 1520 1514 1316 1558 1030 c 1
 1518 1030 l 1
 1464 1294 1318 1460 1150 1460 c 0
 762 1460 540 794 540 390 c 0
 540 186 582 40 730 40 c 0
 838 40 904 126 974 250 c 1
 1056 560 l 1
840 590 m 1
 1580 590 l 1
 1580 550 l 1
 840 550 l 1
 840 590 l 1
1636 1500 m 1
 1666 1500 l 1
 1558 1030 l 1
 1518 1030 l 1
 1496 1192 l 5
 1468 1246 1437 1303 1378 1380 c 5
 1636 1500 l 1
EndSplineSet
EndChar

StartChar: H
Encoding: 72 72 19
GlifName: H_
Width: 1669
Flags: HMW
LayerCount: 2
Fore
SplineSet
770 40 m 1
 1530 40 l 1
 1530 0 l 1
 770 0 l 1
 770 40 l 1
1100 1500 m 1
 1860 1500 l 1
 1860 1460 l 1
 1100 1460 l 1
 1100 1500 l 1
1260 1500 m 1
 1690 1500 l 1
 1350 0 l 1
 920 0 l 1
 1260 1500 l 1
-90 40 m 1
 670 40 l 5
 670 0 l 5
 -90 0 l 1
 -90 40 l 1
240 1500 m 1
 1000 1500 l 5
 1000 1460 l 5
 240 1460 l 1
 240 1500 l 1
420 1500 m 1
 850 1500 l 1
 510 0 l 1
 80 0 l 1
 420 1500 l 1
404 760 m 1
 1124 760 l 1
 1124 720 l 1
 404 720 l 1
 404 760 l 1
EndSplineSet
EndChar

StartChar: I
Encoding: 73 73 20
GlifName: I_
Width: 929
Flags: HMW
LayerCount: 2
Fore
SplineSet
-90 40 m 1
 790 40 l 1
 790 0 l 1
 -90 0 l 1
 -90 40 l 1
240 1500 m 1
 1120 1500 l 1
 1120 1460 l 1
 240 1460 l 1
 240 1500 l 1
470 1500 m 1
 900 1500 l 1
 560 0 l 1
 130 0 l 1
 470 1500 l 1
EndSplineSet
EndChar

StartChar: J
Encoding: 74 74 21
GlifName: J_
Width: 1251
Flags: HMW
LayerCount: 2
Fore
SplineSet
542 1500 m 5
 1442 1500 l 5
 1442 1460 l 5
 542 1460 l 5
 542 1500 l 5
82 50 m 5
 108 26 182 -16 282 -16 c 4
 404 -16 494 100 558 380 c 6
 812 1500 l 5
 1242 1500 l 5
 980 338 l 5
 800 98 624 -60 342 -60 c 4
 88 -60 -70 70 -70 250 c 4
 -70 374 24 500 184 500 c 4
 314 500 416 404 416 262 c 4
 416 122 298 26 170 26 c 4
 144 26 106 34 82 50 c 5
EndSplineSet
Substitution2: "'ss02' Style Set 2 lookup 4-1" J.alt
EndChar

StartChar: K
Encoding: 75 75 22
GlifName: K_
Width: 1693
Flags: HMW
LayerCount: 2
Fore
SplineSet
-90 40 m 1
 670 40 l 1
 670 0 l 1
 -90 0 l 1
 -90 40 l 1
240 1500 m 1
 1040 1500 l 5
 1040 1460 l 5
 240 1460 l 1
 240 1500 l 1
420 1500 m 1
 850 1500 l 1
 510 0 l 1
 80 0 l 1
 420 1500 l 1
386 434 m 1
 308 434 l 1
 1586 1496 l 1
 1654 1496 l 1
 386 434 l 1
764 40 m 1
 1576 40 l 1
 1576 0 l 1
 764 0 l 1
 764 40 l 1
1814 1460 m 1
 1334 1460 l 1
 1334 1500 l 1
 1814 1500 l 1
 1814 1460 l 1
1420 0 m 1
 942 0 l 1
 686 740 l 1
 1048 1026 l 1
 1420 0 l 1
EndSplineSet
EndChar

StartChar: L
Encoding: 76 76 23
GlifName: L_
Width: 1303
Flags: HMW
LayerCount: 2
Fore
SplineSet
418 1500 m 1
 848 1500 l 1
 500 0 l 1
 70 0 l 1
 418 1500 l 1
238 1500 m 1
 1028 1500 l 1
 1028 1460 l 1
 238 1460 l 1
 238 1500 l 1
1140 0 m 1
 -100 0 l 1
 -100 40 l 1
 590 40 l 6
 904 40 1086 196 1204 450 c 1
 1244 450 l 1
 1140 0 l 1
EndSplineSet
EndChar

StartChar: M
Encoding: 77 77 24
GlifName: M_
Width: 1899
Flags: HMW
LayerCount: 2
Fore
SplineSet
1030 40 m 5
 1760 40 l 5
 1760 0 l 5
 1030 0 l 5
 1030 40 l 5
1912 1460 m 1
 1600 0 l 1
 1170 0 l 1
 1490 1500 l 1
 2040 1500 l 1
 2040 1460 l 1
 1912 1460 l 1
974 600 m 1
 1466 1500 l 1
 1516 1500 l 1
 682 -20 l 1
 632 -20 l 1
 396 1500 l 1
 828 1500 l 1
 974 600 l 1
382 1460 m 1
 240 1460 l 1
 240 1500 l 1
 434 1500 l 1
 114 0 l 1
 70 0 l 1
 382 1460 l 1
-60 40 m 1
 264 40 l 1
 264 0 l 1
 -60 0 l 1
 -60 40 l 1
EndSplineSet
EndChar

StartChar: N
Encoding: 78 78 25
GlifName: N_
Width: 1539
Flags: HMW
LayerCount: 2
Fore
SplineSet
1496 1500 m 1
 1540 1500 l 1
 1194 -20 l 1
 1124 -20 l 1
 440 1500 l 1
 950 1500 l 1
 1318 718 l 5
 1496 1500 l 1
1256 1500 m 1
 1730 1500 l 1
 1730 1460 l 1
 1256 1460 l 1
 1256 1500 l 1
-80 40 m 1
 404 40 l 1
 404 0 l 1
 -80 0 l 1
 -80 40 l 1
442 1460 m 1
 240 1460 l 1
 240 1500 l 1
 494 1500 l 1
 154 0 l 1
 110 0 l 1
 442 1460 l 1
EndSplineSet
EndChar

StartChar: O
Encoding: 79 79 26
GlifName: O_
Width: 1579
Flags: HMW
LayerCount: 2
Fore
SplineSet
670 -20 m 0
 304 -20 100 184 100 510 c 0
 100 1136 584 1520 1010 1520 c 0
 1356 1520 1580 1316 1580 990 c 0
 1580 364 1116 -20 670 -20 c 0
1010 1486 m 0
 762 1486 520 734 520 270 c 0
 520 66 562 14 670 14 c 0
 938 14 1160 766 1160 1230 c 0
 1160 1394 1118 1486 1010 1486 c 0
EndSplineSet
EndChar

StartChar: P
Encoding: 80 80 27
GlifName: P_
Width: 1469
Flags: HMW
LayerCount: 2
Fore
SplineSet
420 1500 m 5
 850 1500 l 5
 500 0 l 5
 70 0 l 5
 420 1500 l 5
-90 40 m 5
 700 40 l 5
 700 0 l 5
 -90 0 l 5
 -90 40 l 5
850 660 m 6
 630 660 l 5
 630 700 l 5
 750 700 l 6
 982 700 1074 1042 1074 1260 c 4
 1074 1378 1042 1460 950 1460 c 6
 240 1460 l 5
 240 1500 l 5
 1050 1500 l 6
 1312 1500 1530 1420 1530 1180 c 4
 1530 880 1252 660 850 660 c 6
EndSplineSet
EndChar

StartChar: Q
Encoding: 81 81 28
GlifName: Q_
Width: 1519
Flags: HMW
LayerCount: 2
Fore
SplineSet
1060 -460 m 5
 1060 -500 l 5
 554 -500 340 -326 440 20 c 5
 592 -8 748 -6 910 20 c 5
 810 -344 912 -460 1060 -460 c 5
1010 1486 m 0
 762 1486 520 734 520 270 c 0
 520 66 562 14 670 14 c 0
 938 14 1160 766 1160 1230 c 0
 1160 1394 1118 1486 1010 1486 c 0
670 -20 m 0
 304 -20 100 184 100 510 c 0
 100 1136 584 1520 1010 1520 c 0
 1356 1520 1580 1316 1580 990 c 0
 1580 364 1116 -20 670 -20 c 0
EndSplineSet
EndChar

StartChar: R
Encoding: 82 82 29
GlifName: R_
Width: 1639
Flags: HMW
LayerCount: 2
Fore
SplineSet
1470 24 m 5
 1398 -4 1302 -20 1190 -20 c 4
 544 -20 1242 750 750 750 c 6
 660 750 l 5
 660 770 l 5
 890 770 l 6
 1676 770 1164 40 1370 40 c 4
 1412 40 1430 50 1458 62 c 5
 1470 24 l 5
460 1500 m 5
 890 1500 l 5
 540 0 l 5
 110 0 l 5
 460 1500 l 5
-70 40 m 5
 760 40 l 5
 760 0 l 5
 -70 0 l 5
 -70 40 l 5
870 764 m 6
 660 764 l 5
 660 790 l 5
 770 790 l 6
 1062 790 1130 1122 1130 1280 c 4
 1130 1378 1090 1460 930 1460 c 6
 260 1460 l 5
 260 1500 l 5
 1070 1500 l 6
 1332 1500 1560 1420 1560 1200 c 4
 1560 920 1272 764 870 764 c 6
EndSplineSet
Substitution2: "'ss01' Style Set 1 lookup 2-1" R.alt
EndChar

StartChar: S
Encoding: 83 83 30
GlifName: S_
Width: 1261
Flags: HMW
LayerCount: 2
Fore
SplineSet
1138 1222 m 1
 1103 1294 1068 1353 1032 1410 c 1
 1302 1520 l 1
 1332 1520 l 1
 1218 1030 l 1
 1178 1030 l 1
 1138 1222 l 1
1218 1030 m 1
 1178 1030 l 1
 1118 1248 1008 1474 800 1474 c 0
 668 1474 546 1388 546 1270 c 0
 546 1000 1186 1040 1186 560 c 0
 1186 280 918 -30 556 -30 c 0
 244 -30 126 270 66 510 c 1
 106 510 l 1
 166 312 278 18 536 18 c 0
 728 18 836 132 836 270 c 0
 836 620 206 490 206 990 c 0
 206 1330 518 1520 780 1520 c 0
 1036 1520 1158 1292 1218 1030 c 1
-20 -20 m 1
 -50 -20 l 1
 66 510 l 1
 106 510 l 1
 162 262 l 5
 188 193 223 144 260 98 c 5
 -20 -20 l 1
EndSplineSet
EndChar

StartChar: T
Encoding: 84 84 31
GlifName: T_
Width: 1443
Flags: HMW
LayerCount: 2
Fore
SplineSet
186 40 m 1
 1056 40 l 1
 1056 0 l 1
 186 0 l 1
 186 40 l 1
734 1500 m 1
 1164 1500 l 1
 816 0 l 1
 386 0 l 1
 734 1500 l 1
1214 1460 m 6
 664 1460 l 6
 470 1460 298 1242 180 990 c 1
 140 990 l 1
 254 1500 l 5
 1644 1500 l 5
 1530 990 l 1
 1490 990 l 1
 1488 1244 1408 1460 1214 1460 c 6
EndSplineSet
EndChar

StartChar: U
Encoding: 85 85 32
GlifName: U_
Width: 1473
Flags: HMW
LayerCount: 2
Fore
SplineSet
1274 1500 m 1
 1664 1500 l 1
 1664 1460 l 1
 1274 1460 l 1
 1274 1500 l 1
234 1500 m 1
 1044 1500 l 1
 1044 1460 l 1
 234 1460 l 1
 234 1500 l 1
1464 1500 m 1
 1504 1500 l 1
 1264 460 l 2
 1192 146 980 -30 664 -30 c 0
 338 -30 108 132 184 460 c 2
 424 1500 l 1
 854 1500 l 1
 614 480 l 2
 556 230 556 40 784 40 c 0
 952 40 1158 172 1224 460 c 2
 1464 1500 l 1
EndSplineSet
EndChar

StartChar: V
Encoding: 86 86 33
GlifName: V_
Width: 1629
Flags: HMW
LayerCount: 2
Fore
SplineSet
1830 1460 m 5
 1390 1460 l 5
 1390 1500 l 5
 1830 1500 l 5
 1830 1460 l 5
1050 1460 m 5
 230 1460 l 5
 230 1500 l 5
 1050 1500 l 5
 1050 1460 l 5
942 300 m 5
 1632 1500 l 5
 1682 1500 l 5
 800 -30 l 5
 560 -30 l 5
 370 1500 l 5
 820 1500 l 5
 942 300 l 5
EndSplineSet
EndChar

StartChar: W
Encoding: 87 87 34
GlifName: W_
Width: 2455
Flags: HMW
LayerCount: 2
Fore
SplineSet
1070 406 m 1
 1404 954 l 1
 1452 954 l 1
 866 -20 l 1
 656 -20 l 1
 374 1500 l 1
 878 1500 l 1
 1070 406 l 1
1592 834 m 1
 1544 834 l 1
 1954 1500 l 5
 2002 1500 l 5
 1592 834 l 1
2656 1460 m 1
 2256 1460 l 1
 2256 1500 l 1
 2656 1500 l 1
 2656 1460 l 1
2180 1460 m 1
 230 1460 l 1
 230 1500 l 1
 2180 1500 l 1
 2180 1460 l 1
1776 404 m 1
 2456 1500 l 1
 2504 1500 l 1
 1568 -20 l 1
 1418 -20 l 1
 1136 1500 l 1
 1576 1500 l 1
 1776 404 l 1
EndSplineSet
EndChar

StartChar: X
Encoding: 88 88 35
GlifName: X_
Width: 1659
Flags: HMW
LayerCount: 2
Fore
SplineSet
928 754 m 1
 862 754 l 1
 1556 1496 l 1
 1612 1496 l 1
 928 754 l 1
118 0 m 1
 56 0 l 1
 870 834 l 5
 930 834 l 5
 118 0 l 1
750 40 m 1
 1550 40 l 1
 1550 0 l 1
 750 0 l 1
 750 40 l 1
-110 40 m 1
 370 40 l 1
 370 0 l 1
 -110 0 l 1
 -110 40 l 1
1100 1460 m 1
 300 1460 l 1
 300 1500 l 1
 1100 1500 l 1
 1100 1460 l 1
1780 1460 m 1
 1340 1460 l 1
 1340 1500 l 1
 1780 1500 l 1
 1780 1460 l 1
1412 0 m 1
 942 0 l 1
 440 1500 l 1
 902 1500 l 1
 1412 0 l 1
EndSplineSet
EndChar

StartChar: Y
Encoding: 89 89 36
GlifName: Y_
Width: 1559
Flags: HMW
LayerCount: 2
Fore
SplineSet
1760 1460 m 1
 1340 1460 l 1
 1340 1500 l 1
 1760 1500 l 1
 1760 1460 l 1
1070 1460 m 5
 230 1460 l 1
 230 1500 l 1
 1070 1500 l 5
 1070 1460 l 5
280 40 m 1
 1090 40 l 1
 1090 0 l 1
 280 0 l 1
 280 40 l 1
1072 830 m 1
 1554 1496 l 1
 1612 1496 l 1
 1058 742 l 1
 890 0 l 1
 460 0 l 1
 630 754 l 1
 370 1500 l 1
 870 1500 l 1
 1072 830 l 1
EndSplineSet
EndChar

StartChar: Z
Encoding: 90 90 37
GlifName: Z_
Width: 1327
Flags: HMW
LayerCount: 2
Fore
SplineSet
928 1460 m 1
 738 1460 l 2
 464 1460 344 1314 214 1100 c 1
 174 1100 l 1
 268 1500 l 1
 1458 1500 l 1
 1458 1460 l 1
 420 40 l 5
 670 40 l 2
 944 40 1044 188 1202 440 c 1
 1242 440 l 1
 1140 0 l 1
 -110 0 l 1
 -110 40 l 1
 928 1460 l 1
EndSplineSet
EndChar

StartChar: a
Encoding: 97 97 38
GlifName: a
Width: 1379
VWidth: 2309
Flags: HMW
LayerCount: 2
Fore
SplineSet
758 628 m 0
 758 734 728 802 686 802 c 0
 598 802 448 508 448 240 c 0
 448 172 476 118 518 118 c 0
 620 118 758 420 758 628 c 0
790 628 m 0
 790 412 640 -20 358 -20 c 0
 220 -20 40 60 40 320 c 0
 40 720 354 938 572 938 c 0
 724 938 790 812 790 628 c 0
1330 326 m 1
 1254 126 1096 -20 874 -20 c 0
 720 -20 680 44 680 146 c 0
 680 156 682 178 684 190 c 2
 720 364 l 1
 770 526 l 1
 782 648 l 1
 860 920 l 5
 1226 920 l 1
 1010 152 l 2
 1008 140 1006 126 1006 116 c 0
 1006 94 1016 78 1042 78 c 0
 1130 78 1244 206 1290 338 c 1
 1330 326 l 1
EndSplineSet
EndChar

StartChar: b
Encoding: 98 98 39
GlifName: b
Width: 1335
VWidth: 2309
Flags: HMW
LayerCount: 2
Fore
SplineSet
418 1460 m 1
 272 1460 l 1
 272 1500 l 1
 808 1500 l 1
 504 180 l 1
 504 92 530 32 572 32 c 4
 680 32 858 410 858 678 c 0
 858 746 830 800 788 800 c 0
 736 800 622 688 568 460 c 1
 548 460 l 1
 622 804 790 938 952 938 c 0
 1086 938 1266 876 1266 620 c 0
 1266 200 920 -20 562 -20 c 0
 440 -20 280 34 140 240 c 1
 418 1460 l 1
EndSplineSet
EndChar

StartChar: c
Encoding: 99 99 40
GlifName: c
Width: 1067
VWidth: 2309
Flags: HMW
LayerCount: 2
Fore
SplineSet
900 840 m 1
 850 880 804 894 756 894 c 4
 558 894 448 508 448 260 c 0
 448 92 490 68 558 68 c 0
 628 68 730 120 860 286 c 1
 898 286 l 1
 766 92 620 -20 398 -20 c 0
 216 -20 40 60 40 300 c 0
 40 680 354 940 696 940 c 0
 880 940 1038 836 1038 672 c 4
 1038 550 954 458 834 458 c 0
 724 458 620 530 620 650 c 0
 620 780 736 852 814 852 c 0
 856 852 892 842 900 840 c 1
EndSplineSet
EndChar

StartChar: d
Encoding: 100 100 41
GlifName: d
Width: 1419
VWidth: 2309
Flags: HMW
LayerCount: 2
Fore
SplineSet
1370 326 m 5
 1294 126 1136 -20 914 -20 c 4
 760 -20 680 26 680 166 c 4
 680 176 682 198 684 210 c 6
 720 364 l 5
 770 526 l 5
 782 648 l 5
 972 1460 l 5
 794 1460 l 5
 794 1500 l 5
 1360 1500 l 5
 1050 152 l 6
 1048 140 1046 126 1046 116 c 4
 1046 94 1056 78 1082 78 c 4
 1170 78 1284 206 1330 338 c 5
 1370 326 l 5
758 628 m 0
 758 734 728 802 686 802 c 0
 598 802 448 508 448 240 c 0
 448 172 476 118 518 118 c 0
 620 118 758 420 758 628 c 0
790 628 m 0
 790 412 640 -20 358 -20 c 0
 220 -20 40 60 40 320 c 0
 40 720 354 940 552 940 c 0
 704 940 790 812 790 628 c 0
EndSplineSet
EndChar

StartChar: e
Encoding: 101 101 42
GlifName: e
Width: 1127
VWidth: 2309
Flags: HMW
LayerCount: 2
Fore
SplineSet
448 182 m 0
 448 94 500 52 578 52 c 0
 684 52 844 146 940 286 c 1
 978 286 l 1
 880 132 680 -20 458 -20 c 0
 236 -20 40 60 40 300 c 0
 40 666 380 940 702 940 c 0
 906 940 1088 868 1088 724 c 0
 1088 464 652 394 430 394 c 5
 430 424 l 1
 508 424 756 516 756 784 c 0
 756 838 750 904 710 904 c 0
 612 904 448 470 448 182 c 0
EndSplineSet
EndChar

StartChar: f
Encoding: 102 102 43
GlifName: f
Width: 1007
VWidth: 2309
Flags: HMW
LayerCount: 2
Fore
SplineSet
182 920 m 1
 1002 920 l 1
 1002 880 l 1
 182 880 l 1
 182 920 l 1
1156 1438 m 1
 1128 1454 1072 1476 1010 1476 c 0
 870 1476 784 1324 742 1080 c 2
 550 -24 l 2
 482 -412 214 -520 -46 -520 c 0
 -268 -520 -400 -386 -400 -262 c 0
 -400 -140 -328 -58 -208 -58 c 0
 -98 -58 6 -126 6 -246 c 0
 6 -366 -88 -444 -186 -444 c 0
 -206 -444 -234 -438 -238 -438 c 1
 -214 -452 -156 -476 -92 -476 c 0
 48 -476 134 -324 176 -80 c 2
 368 1024 l 2
 436 1412 704 1520 964 1520 c 0
 1186 1520 1318 1386 1318 1262 c 0
 1318 1140 1246 1058 1126 1058 c 0
 1016 1058 912 1126 912 1246 c 0
 912 1366 1006 1444 1104 1444 c 0
 1124 1444 1152 1438 1156 1438 c 1
EndSplineSet
EndChar

StartChar: g
Encoding: 103 103 44
GlifName: g
Width: 1439
VWidth: 2309
Flags: HMW
LayerCount: 2
Fore
SplineSet
324 -64 m 1
 274 -94 216 -160 216 -264 c 0
 216 -420 334 -480 526 -480 c 0
 684 -480 900 -438 900 -254 c 0
 900 -146 826 -118 716 -118 c 0
 674 -118 452 -118 408 -118 c 0
 228 -118 82 -26 82 98 c 0
 82 306 350 354 560 354 c 1
 556 336 l 1
 490 336 320 304 320 242 c 0
 320 208 390 198 500 198 c 0
 570 198 726 200 782 200 c 0
 992 200 1090 88 1090 -84 c 0
 1090 -406 756 -520 496 -520 c 0
 250 -520 -80 -460 -80 -270 c 0
 -80 -88 214 -64 304 -64 c 2
 324 -64 l 1
1470 744 m 0
 1470 614 1388 568 1318 568 c 0
 1248 568 1168 612 1168 718 c 0
 1168 794 1218 862 1304 862 c 0
 1336 862 1390 844 1398 840 c 1
 1378 872 1326 890 1282 890 c 0
 1182 890 1096 844 996 670 c 1
 962 694 l 1
 1062 876 1182 930 1282 930 c 0
 1416 930 1470 834 1470 744 c 0
584 360 m 0
 642 360 742 622 742 810 c 0
 742 858 742 900 704 900 c 0
 646 900 546 638 546 450 c 0
 546 402 546 360 584 360 c 0
574 320 m 0
 352 320 178 390 178 570 c 0
 178 790 432 940 714 940 c 0
 936 940 1110 870 1110 690 c 0
 1110 470 856 320 574 320 c 0
EndSplineSet
EndChar

StartChar: h
Encoding: 104 104 45
GlifName: h
Width: 1359
VWidth: 2309
Flags: HMW
LayerCount: 2
Fore
SplineSet
764 610 m 2
 816 762 830 864 778 864 c 0
 718 864 578 652 502 346 c 1
 472 346 l 1
 568 650 640 940 886 940 c 0
 1100 940 1226 808 1154 594 c 2
 994 124 l 2
 990 112 988 98 988 88 c 0
 988 66 1000 50 1026 50 c 0
 1126 50 1224 206 1270 338 c 1
 1310 326 l 1
 1234 126 1116 -20 894 -20 c 0
 720 -20 628 42 628 168 c 0
 628 198 632 222 638 244 c 2
 764 610 l 2
390 1460 m 1
 260 1460 l 1
 260 1500 l 1
 780 1500 l 1
 420 0 l 1
 40 0 l 1
 390 1460 l 1
EndSplineSet
EndChar

StartChar: i
Encoding: 105 105 46
GlifName: i
Width: 847
VWidth: 2309
Flags: HMW
LayerCount: 2
Fore
SplineSet
290 1300 m 0
 290 1426 384 1520 510 1520 c 0
 636 1520 730 1426 730 1300 c 0
 730 1174 636 1080 510 1080 c 0
 384 1080 290 1174 290 1300 c 0
798 326 m 1
 722 126 564 -20 342 -20 c 0
 188 -20 110 26 110 166 c 0
 110 176 110 198 114 210 c 2
 284 880 l 5
 130 880 l 5
 130 920 l 5
 674 920 l 5
 480 152 l 2
 478 140 476 126 476 116 c 0
 476 94 486 78 512 78 c 0
 600 78 712 206 758 338 c 1
 798 326 l 1
EndSplineSet
EndChar

StartChar: j
Encoding: 106 106 47
GlifName: j
Width: 693
VWidth: 2309
Flags: HMW
LayerCount: 2
Fore
SplineSet
294 1300 m 0
 294 1426 388 1520 514 1520 c 0
 640 1520 734 1426 734 1300 c 0
 734 1174 640 1080 514 1080 c 0
 388 1080 294 1174 294 1300 c 0
-274 -436 m 5
 -250 -456 -188 -472 -124 -472 c 4
 76 -472 44 -200 100 40 c 6
 296 880 l 5
 116 880 l 5
 116 920 l 5
 686 920 l 5
 490 -24 l 6
 438 -274 146 -520 -114 -520 c 4
 -296 -520 -460 -406 -460 -272 c 4
 -460 -150 -356 -58 -236 -58 c 4
 -126 -58 -34 -140 -34 -234 c 4
 -34 -348 -132 -440 -240 -440 c 4
 -246 -440 -262 -440 -274 -436 c 5
EndSplineSet
EndChar

StartChar: k
Encoding: 107 107 48
GlifName: k
Width: 1373
VWidth: 2309
Flags: HMW
LayerCount: 2
Fore
SplineSet
1314 326 m 5
 1238 126 1100 -20 898 -20 c 4
 744 -20 632 26 632 166 c 4
 632 176 634 198 636 210 c 6
 650 280 l 6
 674 396 724 518 676 518 c 4
 634 518 586 448 568 380 c 5
 538 380 l 5
 592 544 650 588 792 588 c 4
 930 588 1074 502 1014 242 c 6
 990 112 l 6
 990 108 988 98 988 94 c 4
 988 72 1002 62 1028 62 c 4
 1114 62 1228 206 1274 338 c 5
 1314 326 l 5
576 453 m 5
 598 484 l 5
 604 481 615 478 630 478 c 4
 710 478 744 596 796 724 c 4
 852 860 950 940 1070 940 c 4
 1200 940 1334 842 1334 698 c 4
 1334 588 1252 498 1142 498 c 4
 1032 498 962 592 962 678 c 4
 962 774 1042 852 1138 852 c 4
 1180 852 1222 836 1230 832 c 5
 1206 866 1142 900 1066 900 c 4
 980 900 890 842 838 712 c 4
 784 576 750 440 630 440 c 4
 598 440 582 450 576 453 c 5
438 1460 m 5
 268 1460 l 5
 268 1500 l 5
 828 1500 l 5
 480 0 l 5
 100 0 l 5
 438 1460 l 5
EndSplineSet
EndChar

StartChar: l
Encoding: 108 108 49
GlifName: l
Width: 827
VWidth: 2309
Flags: HMW
LayerCount: 2
Fore
SplineSet
778 326 m 5
 702 126 544 -20 322 -20 c 4
 168 -20 90 26 90 166 c 4
 90 176 92 198 94 210 c 6
 380 1460 l 5
 202 1460 l 5
 202 1500 l 5
 768 1500 l 5
 460 152 l 6
 458 140 456 126 456 116 c 4
 456 94 466 78 492 78 c 4
 580 78 692 206 738 338 c 5
 778 326 l 5
EndSplineSet
EndChar

StartChar: m
Encoding: 109 109 50
GlifName: m
Width: 1941
VWidth: 2309
Flags: HMW
LayerCount: 2
Fore
SplineSet
1346 610 m 6
 1398 762 1412 864 1360 864 c 4
 1300 864 1160 652 1084 346 c 5
 1054 346 l 5
 1130 630 1232 940 1468 940 c 4
 1682 940 1808 808 1736 594 c 6
 1576 124 l 6
 1572 112 1570 98 1570 88 c 4
 1570 66 1582 50 1608 50 c 4
 1708 50 1806 206 1852 338 c 5
 1892 326 l 5
 1816 126 1698 -20 1476 -20 c 4
 1302 -20 1210 42 1210 168 c 4
 1210 198 1214 222 1220 244 c 6
 1346 610 l 6
1000 0 m 17
 620 0 l 1
 770 616 l 2
 808 774 840 864 788 864 c 0
 728 864 588 652 512 346 c 1
 482 346 l 1
 578 650 652 940 898 940 c 0
 1112 940 1204 834 1156 638 c 2
 1000 0 l 17
260 880 m 1
 130 880 l 1
 130 920 l 1
 650 920 l 1
 430 0 l 1
 50 0 l 1
 260 880 l 1
EndSplineSet
EndChar

StartChar: n
Encoding: 110 110 51
GlifName: n
Width: 1369
VWidth: 2309
Flags: HMW
LayerCount: 2
Fore
SplineSet
260 880 m 5
 130 880 l 5
 130 920 l 5
 650 920 l 5
 430 0 l 5
 50 0 l 5
 260 880 l 5
774 610 m 6
 826 762 840 864 788 864 c 4
 728 864 588 652 512 346 c 5
 482 346 l 5
 578 650 650 940 896 940 c 4
 1110 940 1236 808 1164 594 c 6
 1004 124 l 6
 1000 112 998 98 998 88 c 4
 998 66 1010 50 1036 50 c 4
 1136 50 1234 206 1280 338 c 5
 1320 326 l 5
 1244 126 1126 -20 904 -20 c 4
 730 -20 638 42 638 168 c 4
 638 198 642 222 648 244 c 6
 774 610 l 6
EndSplineSet
EndChar

StartChar: o
Encoding: 111 111 52
GlifName: o
Width: 1183
VWidth: 2309
Flags: HMW
LayerCount: 2
Fore
SplineSet
478 -20 m 0
 276 -20 40 100 40 340 c 0
 40 720 354 940 676 940 c 0
 878 940 1114 820 1114 580 c 0
 1114 200 800 -20 478 -20 c 0
478 22 m 0
 616 22 746 532 746 780 c 0
 746 868 724 898 676 898 c 0
 538 898 408 388 408 140 c 0
 408 52 430 22 478 22 c 0
EndSplineSet
EndChar

StartChar: p
Encoding: 112 112 53
GlifName: p
Width: 1319
VWidth: 2309
Flags: HMW
LayerCount: 2
Fore
SplineSet
542 290 m 4
 542 184 572 116 614 116 c 4
 702 116 852 410 852 678 c 4
 852 746 824 800 782 800 c 4
 680 800 542 498 542 290 c 4
510 290 m 4
 510 506 660 938 942 938 c 4
 1080 938 1260 858 1260 598 c 4
 1260 198 946 -20 748 -20 c 4
 596 -20 510 106 510 290 c 4
-180 -460 m 5
 470 -460 l 5
 470 -500 l 5
 -180 -500 l 5
 -180 -460 l 5
268 880 m 5
 134 880 l 5
 134 920 l 5
 658 920 l 5
 580 588 l 5
 530 426 l 5
 518 304 l 5
 330 -500 l 5
 -50 -500 l 5
 268 880 l 5
EndSplineSet
EndChar

StartChar: q
Encoding: 113 113 54
GlifName: q
Width: 1269
VWidth: 2309
Flags: HMW
LayerCount: 2
Fore
SplineSet
998 -460 m 1
 998 -500 l 1
 388 -500 l 1
 388 -460 l 1
 998 -460 l 1
858 -500 m 17
 518 -500 l 1
 720 364 l 5
 740 409 759 460 770 526 c 5
 782 648 l 1
 842 900 l 1
 1190 940 l 1
 858 -500 l 17
758 628 m 0
 758 734 728 802 686 802 c 0
 598 802 448 508 448 240 c 0
 448 172 476 118 518 118 c 0
 620 118 758 420 758 628 c 0
790 628 m 0
 790 412 640 -20 358 -20 c 0
 220 -20 40 60 40 320 c 0
 40 720 354 940 552 940 c 0
 704 940 790 812 790 628 c 0
EndSplineSet
EndChar

StartChar: r
Encoding: 114 114 55
GlifName: r
Width: 1133
VWidth: 2309
Flags: HMW
LayerCount: 2
Fore
SplineSet
1174 678 m 0
 1174 560 1094 456 958 456 c 0
 832 456 740 542 740 666 c 0
 740 776 832 878 970 878 c 0
 976 878 980 878 986 878 c 1
 966 888 920 894 890 894 c 0
 700 894 566 542 518 346 c 1
 488 346 l 1
 536 590 646 940 910 940 c 0
 1042 940 1174 836 1174 678 c 0
270 880 m 1
 130 880 l 1
 130 920 l 1
 650 920 l 1
 440 0 l 1
 60 0 l 1
 270 880 l 1
EndSplineSet
EndChar

StartChar: s
Encoding: 115 115 56
GlifName: s
Width: 1043
VWidth: 2309
Flags: HMW
LayerCount: 2
Fore
SplineSet
800 854 m 1
 772 868 706 898 578 898 c 0
 432 898 404 844 404 792 c 0
 404 632 874 590 874 324 c 0
 874 136 674 -24 420 -24 c 4
 102 -24 0 120 0 230 c 0
 0 332 80 394 160 394 c 0
 230 394 318 342 318 242 c 0
 318 152 242 92 164 92 c 0
 122 92 112 108 104 110 c 1
 148 68 216 16 420 16 c 0
 560 16 648 74 648 136 c 0
 648 270 152 322 152 614 c 0
 152 812 372 938 558 938 c 4
 834 938 944 834 944 720 c 0
 944 638 884 576 804 576 c 0
 734 576 650 628 650 718 c 0
 650 798 698 858 764 858 c 0
 784 858 792 856 800 854 c 1
EndSplineSet
EndChar

StartChar: t
Encoding: 116 116 57
GlifName: t
Width: 849
VWidth: 2309
Flags: HMW
LayerCount: 2
Fore
SplineSet
120 920 m 1
 860 920 l 1
 860 880 l 1
 120 880 l 1
 120 920 l 1
796 326 m 1
 720 126 562 -20 340 -20 c 0
 186 -20 102 26 102 166 c 4
 102 176 104 198 108 210 c 2
 338 1120 l 1
 716 1120 l 1
 474 152 l 6
 472 140 470 126 470 116 c 0
 470 94 480 78 506 78 c 0
 594 78 710 206 756 338 c 1
 796 326 l 1
EndSplineSet
EndChar

StartChar: u
Encoding: 117 117 58
GlifName: u
Width: 1427
VWidth: 2309
Flags: HMW
LayerCount: 2
Fore
SplineSet
654 920 m 1
 510 304 l 2
 474 146 444 56 496 56 c 0
 556 56 700 268 776 574 c 1
 806 574 l 1
 710 270 634 -20 388 -20 c 0
 194 -20 92 118 128 282 c 2
 262 880 l 1
 130 880 l 1
 130 920 l 1
 654 920 l 1
1378 326 m 1
 1302 126 1144 -20 922 -20 c 4
 768 -20 686 26 686 166 c 4
 686 176 688 198 690 210 c 2
 852 920 l 1
 1234 920 l 1
 1056 152 l 6
 1054 140 1052 126 1052 116 c 4
 1052 94 1062 78 1088 78 c 4
 1176 78 1292 206 1338 338 c 1
 1378 326 l 1
EndSplineSet
EndChar

StartChar: v
Encoding: 118 118 59
GlifName: v
Width: 1371
VWidth: 2309
Flags: HMW
LayerCount: 2
Fore
SplineSet
650 284 m 6
 624 126 600 48 712 48 c 4
 908 48 1292 342 1292 688 c 4
 1292 692 1292 694 1292 700 c 5
 1286 622 1172 510 1066 510 c 4
 946 510 854 614 854 724 c 4
 854 844 952 938 1086 938 c 4
 1232 938 1332 830 1332 688 c 4
 1332 324 940 -20 614 -20 c 4
 360 -20 236 120 274 322 c 6
 356 768 l 6
 358 780 360 794 360 804 c 4
 360 826 348 842 322 842 c 4
 214 842 126 714 70 582 c 5
 30 594 l 5
 126 794 224 940 486 940 c 4
 660 940 718 880 718 774 c 4
 718 744 718 730 712 696 c 6
 650 284 l 6
EndSplineSet
Substitution2: "'ss04' Style Set 4 lookup 5-1" v.alt
EndChar

StartChar: w
Encoding: 119 119 60
GlifName: w
Width: 2017
VWidth: 2309
Flags: HMW
LayerCount: 2
Fore
SplineSet
576 322 m 2
 524 168 540 58 632 58 c 0
 748 58 862 268 938 574 c 1
 968 574 l 1
 892 270 820 -20 494 -20 c 0
 260 -20 124 86 190 282 c 2
 354 768 l 2
 358 780 360 794 360 804 c 0
 360 826 348 842 322 842 c 0
 214 842 126 714 70 582 c 1
 30 594 l 1
 126 794 224 940 486 940 c 0
 640 940 722 890 722 764 c 0
 722 734 716 710 712 696 c 2
 576 322 l 2
1020 920 m 1
 1400 920 l 1
 1272 378 l 2
 1232 210 1240 50 1388 50 c 0
 1670 50 1936 472 1936 688 c 4
 1936 690 1936 694 1936 700 c 5
 1930 602 1836 510 1710 510 c 0
 1570 510 1498 614 1498 724 c 0
 1498 844 1606 938 1730 938 c 0
 1836 938 1978 870 1978 688 c 0
 1978 468 1718 -20 1308 -20 c 0
 1110 -20 886 56 886 356 c 1
 1020 920 l 1
EndSplineSet
EndChar

StartChar: x
Encoding: 120 120 61
GlifName: x
Width: 1431
VWidth: 2309
Flags: HMW
LayerCount: 2
Fore
SplineSet
768 492 m 1
 888 688 1002 940 1220 940 c 0
 1382 940 1462 812 1462 708 c 0
 1462 596 1382 508 1266 508 c 0
 1146 508 1076 612 1076 702 c 0
 1076 796 1156 892 1258 892 c 0
 1270 892 1282 890 1292 886 c 1
 1266 896 1238 902 1214 902 c 0
 1046 902 922 662 806 472 c 1
 768 492 l 1
694 428 m 1
 574 232 460 -20 242 -20 c 0
 80 -20 0 108 0 212 c 0
 0 324 80 412 196 412 c 0
 316 412 386 308 386 218 c 0
 386 124 306 28 204 28 c 0
 192 28 180 30 170 34 c 1
 196 24 224 18 248 18 c 0
 416 18 540 258 656 448 c 1
 694 428 l 1
1320 218 m 5
 1256 58 1144 -20 960 -20 c 4
 766 -20 704 50 648 186 c 4
 580 352 490 670 438 814 c 4
 430 836 424 862 388 862 c 4
 326 862 256 772 222 680 c 5
 184 698 l 5
 246 858 346 944 550 944 c 4
 744 944 798 874 854 738 c 4
 924 564 1000 302 1070 108 c 4
 1078 86 1100 60 1126 60 c 4
 1172 60 1250 142 1284 234 c 5
 1320 218 l 5
EndSplineSet
EndChar

StartChar: y
Encoding: 121 121 62
GlifName: y
Width: 1421
VWidth: 2309
Flags: HMW
LayerCount: 2
Fore
SplineSet
720 -254 m 1
 534 58 392 644 338 788 c 0
 330 810 310 840 274 840 c 0
 222 840 152 788 114 676 c 1
 76 694 l 1
 142 874 298 940 462 940 c 0
 622 940 706 868 748 732 c 0
 804 552 870 240 1000 46 c 5
 901 -91 825 -167 720 -254 c 1
350 -520 m 0
 116 -520 30 -352 30 -242 c 0
 30 -116 118 -10 234 -10 c 0
 344 -10 426 -82 426 -198 c 0
 426 -304 356 -386 246 -386 c 0
 162 -386 104 -330 80 -262 c 1
 80 -320 140 -480 346 -480 c 0
 670 -480 1334 474 1334 710 c 0
 1334 714 1334 716 1334 722 c 1
 1328 644 1256 552 1144 552 c 0
 1024 552 950 656 950 746 c 0
 950 846 1020 940 1154 940 c 0
 1296 940 1382 834 1382 712 c 0
 1382 452 700 -520 350 -520 c 0
EndSplineSet
EndChar

StartChar: z
Encoding: 122 122 63
GlifName: z
Width: 1061
VWidth: 2309
Flags: HMW
LayerCount: 2
Fore
SplineSet
66 380 m 1
 198 940 l 1
 306 880 426 862 578 862 c 0
 714 862 890 886 974 940 c 1
 1012 900 l 1
 784 760 530 510 370 510 c 0
 282 510 206 536 154 576 c 1
 106 380 l 1
 66 380 l 1
40 40 m 1
 -40 20 l 1
 932 880 l 1
 1012 900 l 1
 40 40 l 1
1004 366 m 1
 974 304 930 252 848 252 c 0
 762 252 674 332 674 432 c 0
 674 542 768 614 858 614 c 0
 958 614 1048 532 1048 410 c 0
 1048 270 898 -20 614 -20 c 0
 452 -20 366 78 234 78 c 0
 138 78 62 44 -2 -20 c 1
 -40 20 l 1
 168 140 374 350 514 350 c 0
 662 350 646 204 820 204 c 0
 940 204 998 286 1004 366 c 1
EndSplineSet
EndChar

StartChar: comma
Encoding: 44 44 65
GlifName: comma
Width: 669
Flags: HMW
LayerCount: 2
Fore
SplineSet
80 218 m 0
 80 344 198 456 334 456 c 0
 472 456 594 354 594 168 c 4
 594 -148 236 -312 -64 -312 c 1
 -64 -272 l 1
 180 -272 538 -142 552 164 c 1
 508 60 400 -20 306 -20 c 0
 180 -20 80 92 80 218 c 0
EndSplineSet
EndChar

StartChar: exclam
Encoding: 33 33 67
GlifName: exclam
Width: 877
Flags: HMW
LayerCount: 2
Fore
SplineSet
896 1318 m 4
 896 1062 608 936 518 616 c 5
 478 616 l 5
 538 916 400 946 400 1198 c 4
 400 1370 544 1516 682 1516 c 4
 812 1516 896 1420 896 1318 c 4
168 220 m 0
 168 352 276 460 408 460 c 0
 540 460 648 352 648 220 c 0
 648 88 540 -20 408 -20 c 0
 276 -20 168 88 168 220 c 0
EndSplineSet
EndChar

StartChar: quotesingle
Encoding: 39 39 70
GlifName: quotesingle
Width: 627
Flags: HMW
LayerCount: 2
Fore
SplineSet
712 1278 m 0
 674 1128 478 1036 418 836 c 1
 378 836 l 1
 430 1036 294 1122 272 1272 c 24
 270 1286 270 1306 270 1318 c 0
 270 1436 372 1520 510 1520 c 4
 628 1520 718 1436 718 1338 c 0
 718 1316 716 1292 712 1278 c 0
EndSplineSet
EndChar

StartChar: question
Encoding: 63 63 75
GlifName: question
Width: 1239
Flags: HMW
LayerCount: 2
Fore
SplineSet
618 710 m 1
 584 558 l 1
 544 558 l 1
 584 738 l 1
 818 800 908 1094 908 1300 c 0
 908 1408 870 1478 772 1478 c 0
 564 1478 430 1348 390 1272 c 1
 418 1294 468 1320 514 1320 c 0
 612 1320 708 1240 708 1130 c 0
 708 1010 604 918 494 918 c 4
 354 918 300 1020 300 1142 c 0
 300 1306 528 1520 792 1520 c 4
 1014 1520 1330 1440 1330 1200 c 4
 1330 850 928 726 618 710 c 1
EndSplineSet
Refer: 1 46 N 1 0 0 1 298 0 2
EndChar

StartChar: parenleft
Encoding: 40 40 76
GlifName: parenleft
Width: 769
Flags: HMW
LayerCount: 2
Fore
SplineSet
590 -306 m 1
 572 -340 l 1
 346 -240 170 24 170 370 c 0
 170 956 626 1440 1012 1600 c 1
 1030 1566 l 1
 722 1326 528 454 528 10 c 0
 528 -134 558 -246 590 -306 c 1
EndSplineSet
EndChar

StartChar: asterisk
Encoding: 42 42 78
GlifName: asterisk
Width: 1269
VWidth: 2309
Flags: HMW
LayerCount: 2
Fore
SplineSet
566 1304 m 0
 698 1208 606 1004 776 914 c 1
 756 884 l 1
 566 994 414 872 276 934 c 0
 158 988 154 1132 216 1234 c 0
 284 1342 450 1388 566 1304 c 0
262 866 m 0
 410 896 564 808 754 918 c 1
 774 884 l 1
 584 774 546 614 420 510 c 0
 304 414 170 444 108 542 c 0
 38 650 106 834 262 866 c 0
462 454 m 0
 490 608 718 680 748 900 c 1
 784 900 l 1
 744 640 898 584 898 434 c 0
 898 320 776 216 646 216 c 0
 536 216 430 284 462 454 c 0
964 496 m 0
 832 592 924 796 754 886 c 1
 774 916 l 1
 964 806 1116 928 1254 866 c 0
 1372 812 1376 668 1314 566 c 0
 1246 458 1080 412 964 496 c 0
1268 934 m 0
 1120 904 966 992 776 882 c 1
 756 916 l 1
 946 1026 984 1186 1110 1290 c 0
 1226 1386 1360 1356 1422 1258 c 0
 1492 1150 1424 966 1268 934 c 0
1068 1346 m 0
 1040 1192 812 1120 782 900 c 1
 746 900 l 1
 786 1160 632 1216 632 1366 c 0
 632 1480 754 1584 884 1584 c 0
 994 1584 1100 1516 1068 1346 c 0
EndSplineSet
EndChar

StartChar: at
Encoding: 64 64 79
GlifName: at
Width: 2019
VWidth: 2309
Flags: HMW
LayerCount: 2
Fore
SplineSet
1110 712 m 4
 1110 388 988 140 728 140 c 4
 530 140 408 252 408 460 c 4
 408 760 616 1058 914 1058 c 4
 1096 1058 1110 876 1110 712 c 4
1078 692 m 4
 1078 776 1078 926 1034 926 c 4
 968 926 850 728 850 480 c 4
 850 346 880 274 928 274 c 4
 990 274 1078 436 1078 692 c 4
1040 420 m 2
 1184 1040 l 1
 1604 1040 l 1
 1460 420 l 2
 1438 322 1408 214 1482 214 c 0
 1668 214 1870 494 1870 802 c 0
 1870 1156 1656 1540 1168 1540 c 0
 610 1540 150 1026 150 422 c 0
 150 -172 490 -388 838 -388 c 0
 1166 -388 1360 -294 1540 -98 c 1
 1570 -128 l 1
 1402 -324 1164 -428 838 -428 c 0
 472 -428 110 -204 110 422 c 0
 110 1048 584 1580 1170 1580 c 0
 1676 1580 1910 1168 1910 802 c 0
 1910 462 1724 136 1322 136 c 0
 1024 136 1012 296 1040 420 c 2
EndSplineSet
EndChar

StartChar: dollar
Encoding: 36 36 80
GlifName: dollar
Width: 1289
Flags: HMW
LayerCount: 2
Fore
SplineSet
790 1660 m 1
 840 1660 l 1
 420 -160 l 1
 370 -160 l 1
 790 1660 l 1
930 1660 m 1
 980 1660 l 1
 560 -160 l 1
 510 -160 l 1
 930 1660 l 1
600 1270 m 0
 600 960 1230 1080 1230 560 c 0
 1230 180 832 -30 550 -30 c 0
 278 -30 60 140 60 360 c 4
 60 472 132 574 260 574 c 0
 360 574 448 500 448 392 c 0
 448 252 352 192 244 192 c 0
 212 192 170 198 142 210 c 1
 198 134 332 12 550 12 c 0
 762 12 890 132 890 270 c 0
 890 620 260 450 260 970 c 0
 260 1310 632 1520 894 1520 c 0
 1110 1520 1310 1382 1310 1200 c 0
 1310 1108 1244 1004 1116 1004 c 0
 1016 1004 922 1068 922 1190 c 0
 922 1310 1028 1368 1116 1368 c 0
 1154 1368 1202 1352 1214 1342 c 1
 1170 1400 1062 1474 894 1474 c 0
 682 1474 600 1368 600 1270 c 0
EndSplineSet
EndChar

StartChar: numbersign
Encoding: 35 35 81
GlifName: numbersign
Width: 1259
Flags: HMW
LayerCount: 2
Fore
SplineSet
132 530 m 1
 1212 530 l 1
 1212 490 l 1
 132 490 l 1
 132 530 l 1
232 1040 m 1
 1312 1040 l 1
 1312 1000 l 1
 232 1000 l 1
 232 1040 l 1
1080 1508 m 5
 1122 1510 l 1
 772 -10 l 1
 730 -12 l 5
 1080 1508 l 5
682 1510 m 1
 724 1510 l 1
 374 -10 l 1
 332 -10 l 1
 682 1510 l 1
EndSplineSet
EndChar

StartChar: slash
Encoding: 47 47 82
GlifName: slash
Width: 1039
Flags: HMW
LayerCount: 2
Fore
SplineSet
1190 1560 m 1
 1240 1560 l 1
 -10 -300 l 1
 -60 -300 l 1
 1190 1560 l 1
EndSplineSet
EndChar

StartChar: percent
Encoding: 37 37 83
GlifName: percent
Width: 2000
Flags: HMW
LayerCount: 2
Fore
SplineSet
1460 -20 m 4
 1234 -20 1060 74 1060 280 c 4
 1060 606 1334 860 1640 860 c 4
 1866 860 2040 766 2040 560 c 4
 2040 234 1766 -20 1460 -20 c 4
1660 820 m 4
 1572 820 1400 274 1400 110 c 4
 1400 66 1412 20 1440 20 c 4
 1528 20 1690 576 1690 740 c 4
 1690 784 1688 820 1660 820 c 4
1736 1500 m 5
 1790 1500 l 5
 440 0 l 5
 386 0 l 5
 1736 1500 l 5
550 640 m 4
 324 640 150 734 150 940 c 4
 150 1266 424 1520 730 1520 c 4
 956 1520 1130 1426 1130 1220 c 4
 1130 894 856 640 550 640 c 4
750 1480 m 4
 662 1480 490 934 490 770 c 4
 490 726 502 680 530 680 c 4
 618 680 780 1236 780 1400 c 4
 780 1444 778 1480 750 1480 c 4
EndSplineSet
EndChar

StartChar: hyphen
Encoding: 45 45 85
GlifName: hyphen
Width: 719
Flags: HMW
LayerCount: 2
Fore
SplineSet
166 570 m 5
 646 570 l 5
 646 530 l 5
 166 530 l 5
 166 570 l 5
EndSplineSet
EndChar

StartChar: plus
Encoding: 43 43 87
GlifName: plus
Width: 1059
Flags: HMW
LayerCount: 2
Fore
SplineSet
478 220 m 1
 668 1040 l 1
 712 1040 l 1
 522 220 l 1
 478 220 l 1
186 652 m 1
 1006 652 l 1
 1006 612 l 1
 186 612 l 1
 186 652 l 1
EndSplineSet
EndChar

StartChar: less
Encoding: 60 60 89
GlifName: less
Width: 1119
Flags: HMW
LayerCount: 2
Fore
SplineSet
220 760 m 1
 220 800 l 1
 1180 1200 l 1
 1180 1160 l 1
 220 760 l 1
220 750 m 1
 220 790 l 1
 1000 390 l 1
 1000 350 l 1
 220 750 l 1
EndSplineSet
EndChar

StartChar: backslash
Encoding: 92 92 91
GlifName: backslash
Width: 1039
Flags: HMW
LayerCount: 2
Fore
SplineSet
406 1560 m 1
 820 -300 l 1
 774 -300 l 1
 360 1560 l 1
 406 1560 l 1
EndSplineSet
EndChar

StartChar: bracketleft
Encoding: 91 91 92
GlifName: bracketleft
Width: 809
Flags: HMW
LayerCount: 2
Fore
SplineSet
400 1560 m 1
 1020 1560 l 1
 1020 1520 l 1
 770 1520 l 1
 370 -260 l 1
 600 -260 l 1
 600 -300 l 1
 -20 -300 l 1
 400 1560 l 1
EndSplineSet
EndChar

StartChar: braceleft
Encoding: 123 123 93
GlifName: braceleft
Width: 743
VWidth: 2309
Flags: HMW
LayerCount: 2
Fore
SplineSet
964 1560 m 1
 964 1520 l 1
 840 1520 700 1420 700 1234 c 0
 700 1122 728 1062 728 942 c 0
 728 716 378 640 170 620 c 1
 170 650 l 1
 230 670 360 712 360 814 c 0
 360 940 304 968 304 1142 c 0
 304 1420 634 1560 964 1560 c 1
544 -300 m 1
 214 -300 10 -238 10 -20 c 0
 10 234 270 364 270 490 c 0
 270 572 230 590 170 610 c 1
 170 640 l 1
 378 620 584 586 584 400 c 0
 584 200 396 60 396 -92 c 0
 396 -178 420 -260 544 -260 c 1
 544 -300 l 1
EndSplineSet
EndChar

StartChar: bar
Encoding: 124 124 96
GlifName: bar
Width: 459
VWidth: 2309
Flags: HMW
LayerCount: 2
Fore
SplineSet
492 1560 m 5
 530 1560 l 1
 50 -500 l 1
 12 -500 l 5
 492 1560 l 5
EndSplineSet
EndChar

StartChar: cent
Encoding: 162 162 98
GlifName: cent
Width: 1067
VWidth: 2309
Flags: HMW
LayerCount: 2
Fore
SplineSet
770 1110 m 5
 430 -170 l 5
 390 -170 l 5
 730 1110 l 5
 770 1110 l 5
EndSplineSet
Refer: 40 99 N 1 0 0 1 0 0 2
EndChar

StartChar: sterling
Encoding: 163 163 99
GlifName: sterling
Width: 1433
VWidth: 2309
Flags: HMW
LayerCount: 2
Fore
SplineSet
1384 554 m 1
 1344 264 1162 -60 884 -60 c 0
 610 -60 420 60 294 60 c 0
 212 60 144 20 104 -40 c 1
 82 -40 l 1
 162 188 478 434 684 434 c 0
 864 434 904 366 1056 366 c 0
 1182 366 1304 390 1344 554 c 1
 1384 554 l 1
1230 810 m 1
 1230 770 l 1
 130 770 l 1
 130 810 l 1
 1230 810 l 1
316 1040 m 0
 316 1340 688 1520 1050 1520 c 0
 1374 1520 1494 1356 1494 1152 c 0
 1494 1010 1386 908 1266 908 c 0
 1136 908 1032 1000 1032 1140 c 0
 1032 1270 1148 1350 1266 1350 c 0
 1368 1350 1426 1282 1454 1240 c 5
 1398 1408 1278 1468 1130 1468 c 0
 932 1468 818 1308 818 1160 c 0
 818 1042 860 1010 860 860 c 0
 860 440 98 390 104 -40 c 1
 64 -40 l 1
 46 238 378 374 378 622 c 0
 378 750 316 870 316 1040 c 0
EndSplineSet
EndChar

StartChar: section
Encoding: 167 167 101
GlifName: section
Width: 947
VWidth: 2309
Flags: HMW
LayerCount: 2
Fore
SplineSet
502 1288 m 0
 502 1076 976 1126 976 820 c 0
 976 656 810 600 702 528 c 1
 672 540 l 1
 720 584 744 606 744 686 c 0
 744 848 276 782 276 1126 c 0
 276 1334 526 1520 756 1520 c 0
 952 1520 1090 1404 1090 1272 c 0
 1090 1150 1014 1080 904 1080 c 0
 804 1080 736 1140 736 1252 c 0
 736 1336 812 1402 890 1402 c 0
 972 1402 994 1382 1022 1360 c 5
 1002 1388 950 1480 756 1480 c 0
 610 1480 502 1402 502 1288 c 0
880 384 m 0
 880 176 620 -20 350 -20 c 0
 174 -20 -38 56 -38 248 c 0
 -38 350 38 432 158 432 c 0
 258 432 330 378 330 286 c 0
 330 182 254 110 156 110 c 0
 74 110 36 154 8 184 c 1
 70 46 246 14 350 14 c 0
 556 14 660 148 660 202 c 0
 660 374 138 364 138 650 c 0
 138 794 316 948 424 980 c 1
 462 980 l 1
 434 976 370 914 370 854 c 0
 370 692 880 668 880 384 c 0
EndSplineSet
EndChar

StartChar: brokenbar
Encoding: 166 166 102
GlifName: brokenbar
Width: 439
VWidth: 2309
Flags: HMW
LayerCount: 2
Fore
SplineSet
200 332 m 1
 236 332 l 1
 44 -500 l 1
 8 -500 l 1
 200 332 l 1
484 1560 m 5
 520 1560 l 1
 348 818 l 1
 312 818 l 5
 484 1560 l 5
EndSplineSet
EndChar

StartChar: asciitilde
Encoding: 126 126 104
GlifName: asciitilde
Width: 1375
VWidth: 2309
Flags: HMW
LayerCount: 2
Fore
SplineSet
526 814 m 0
 420 814 370 770 340 686 c 1
 300 686 l 1
 360 916 440 1080 638 1080 c 4
 858 1080 878 892 1070 892 c 0
 1196 892 1246 936 1276 1020 c 1
 1316 1020 l 1
 1256 790 1176 626 978 626 c 0
 724 626 732 814 526 814 c 0
EndSplineSet
EndChar

StartChar: copyright
Encoding: 169 169 105
GlifName: copyright
Width: 1739
Flags: HMW
LayerCount: 2
Fore
SplineSet
170 610 m 0
 170 1076 614 1520 1080 1520 c 0
 1466 1520 1750 1276 1750 890 c 0
 1750 424 1306 -20 840 -20 c 0
 454 -20 170 224 170 610 c 0
210 610 m 0
 210 248 478 20 840 20 c 0
 1282 20 1710 448 1710 890 c 0
 1710 1252 1442 1480 1080 1480 c 0
 638 1480 210 1052 210 610 c 0
EndSplineSet
Refer: 14 67 S 0.6 0 0 0.6 424 300 2
EndChar

StartChar: registered
Encoding: 174 174 106
GlifName: registered
Width: 1739
Flags: HMW
LayerCount: 2
Fore
SplineSet
170 610 m 0
 170 1076 614 1520 1080 1520 c 0
 1466 1520 1750 1276 1750 890 c 0
 1750 424 1306 -20 840 -20 c 0
 454 -20 170 224 170 610 c 0
210 610 m 0
 210 248 478 20 840 20 c 0
 1282 20 1710 448 1710 890 c 0
 1710 1252 1442 1480 1080 1480 c 0
 638 1480 210 1052 210 610 c 0
EndSplineSet
Refer: 29 82 S 0.6 0 0 0.6 456 296 2
EndChar

StartChar: logicalnot
Encoding: 172 172 107
GlifName: logicalnot
Width: 971
Flags: HMW
LayerCount: 2
Fore
SplineSet
984 1190 m 5
 300 1190 l 1
 300 1230 l 1
 1032 1230 l 1
 942 826 l 1
 904 826 l 5
 984 1190 l 5
EndSplineSet
EndChar

StartChar: guillemotleft
Encoding: 171 171 108
GlifName: guillemotleft
Width: 1389
Flags: HMW
LayerCount: 2
Fore
SplineSet
1162 776 m 5
 1290 310 l 1
 1270 290 l 1
 710 750 l 1
 710 800 l 1
 1490 1260 l 1
 1510 1240 l 1
 1162 776 l 5
602 776 m 5
 730 310 l 1
 710 290 l 1
 150 750 l 1
 150 800 l 1
 930 1260 l 1
 950 1240 l 1
 602 776 l 5
EndSplineSet
EndChar

StartChar: mu
Encoding: 181 181 111
GlifName: mu
Width: 1427
VWidth: 2309
Flags: HMW
LayerCount: 2
Fore
SplineSet
60 -182 m 2
 20 -358 34 -476 200 -490 c 1
 200 -488 l 1
 146 -442 146 -388 146 -352 c 0
 146 -286 198 -246 264 -246 c 0
 330 -246 382 -304 382 -380 c 0
 382 -458 340 -520 194 -520 c 0
 14 -520 -24 -372 20 -182 c 2
 210 642 l 1
 250 642 l 1
 60 -182 l 2
EndSplineSet
Refer: 58 117 N 1 0 0 1 0 0 2
EndChar

StartChar: asciicircum
Encoding: 94 94 113
GlifName: asciicircum
Width: 1089
Flags: HMW
LayerCount: 2
Fore
SplineSet
816 1446 m 5
 440 1240 l 1
 420 1260 l 1
 760 1540 l 1
 890 1540 l 1
 1110 1260 l 1
 1090 1240 l 1
 816 1446 l 5
EndSplineSet
EndChar

StartChar: degree
Encoding: 176 176 115
GlifName: degree
Width: 639
Flags: HMW
LayerCount: 2
Fore
SplineSet
388 1360 m 4
 388 1492 496 1600 628 1600 c 4
 760 1600 868 1492 868 1360 c 4
 868 1228 760 1120 628 1120 c 4
 496 1120 388 1228 388 1360 c 4
498 1360 m 4
 498 1286 554 1230 628 1230 c 4
 702 1230 758 1286 758 1360 c 4
 758 1434 702 1490 628 1490 c 4
 554 1490 498 1434 498 1360 c 4
EndSplineSet
EndChar

StartChar: onequarter
Encoding: 188 188 119
GlifName: onequarter
Width: 1281
Flags: HMW
LayerCount: 2
Fore
SplineSet
1238 1300 m 5
 1272 1300 l 5
 0 -200 l 5
 -34 -200 l 5
 1238 1300 l 5
EndSplineSet
Refer: 6 52 N 0.6 0 0 0.6 480 -206 2
Refer: 3 49 N 0.6 0 0 0.6 204 712 2
EndChar

StartChar: onehalf
Encoding: 189 189 120
GlifName: onehalf
Width: 1339
Flags: HMW
LayerCount: 2
Fore
SplineSet
1238 1300 m 1
 1272 1300 l 1
 0 -200 l 1
 -34 -200 l 1
 1238 1300 l 1
EndSplineSet
Refer: 4 50 N 0.6 0 0 0.6 682 -202 2
Refer: 3 49 S 0.6 0 0 0.6 204 712 2
EndChar

StartChar: threequarters
Encoding: 190 190 121
GlifName: threequarters
Width: 1401
Flags: HMW
LayerCount: 2
Fore
SplineSet
1358 1300 m 1
 1392 1300 l 1
 120 -200 l 1
 86 -200 l 1
 1358 1300 l 1
EndSplineSet
Refer: 5 51 N 0.6 0 0 0.6 170 708 2
Refer: 6 52 N 0.6 0 0 0.6 600 -206 2
EndChar

StartChar: grave
Encoding: 96 96 123
GlifName: grave
Width: 829
Flags: HMW
LayerCount: 2
Fore
SplineSet
568 1360 m 6
 470 1342 378 1412 378 1510 c 4
 378 1608 488 1698 588 1656 c 6
 1004 1480 l 5
 998 1440 l 5
 568 1360 l 6
EndSplineSet
EndChar

StartChar: acute
Encoding: 180 180 124
GlifName: acute
Width: 829
Flags: HMW
LayerCount: 2
Fore
SplineSet
890 1340 m 2
 460 1420 l 1
 454 1460 l 1
 870 1636 l 2
 970 1678 1080 1588 1080 1490 c 0
 1080 1392 988 1322 890 1340 c 2
EndSplineSet
EndChar

StartChar: multiply
Encoding: 215 215 127
GlifName: multiply
Width: 1059
Flags: HMW
LayerCount: 2
Fore
SplineSet
806 326 m 1
 356 906 l 1
 384 934 l 1
 834 354 l 1
 806 326 l 1
224 356 m 1
 934 936 l 1
 962 908 l 5
 252 328 l 5
 224 356 l 1
EndSplineSet
EndChar

StartChar: cedilla
Encoding: 184 184 128
GlifName: cedilla
Width: 1099
Flags: HMW
LayerCount: 2
Fore
SplineSet
474 -158 m 1
 714 82 l 1
 770 82 l 1
 530 -158 l 1
 474 -158 l 1
474 -158 m 1
 574 -78 l 1
 736 -78 908 -100 908 -220 c 4
 908 -380 664 -440 402 -440 c 1
 402 -400 l 1
 520 -400 598 -348 598 -260 c 4
 598 -194 564 -158 474 -158 c 1
EndSplineSet
EndChar

StartChar: divide
Encoding: 247 247 131
GlifName: divide
Width: 1219
Flags: HMW
LayerCount: 2
Fore
SplineSet
189 810 m 5
 1309 810 l 5
 1309 770 l 5
 189 770 l 5
 189 810 l 5
440 380 m 4
 440 512 548 620 680 620 c 4
 812 620 920 512 920 380 c 4
 920 248 812 140 680 140 c 4
 548 140 440 248 440 380 c 4
600 1190 m 4
 600 1322 708 1430 840 1430 c 4
 972 1430 1080 1322 1080 1190 c 4
 1080 1058 972 950 840 950 c 4
 708 950 600 1058 600 1190 c 4
EndSplineSet
EndChar

StartChar: ring
Encoding: 730 730 271
GlifName: ring
Width: 639
VWidth: 0
Flags: HMW
LayerCount: 2
Fore
SplineSet
330 1360 m 0
 330 1462 418 1540 560 1540 c 0
 702 1540 790 1462 790 1360 c 0
 790 1258 702 1180 560 1180 c 0
 418 1180 330 1258 330 1360 c 0
496 1270 m 0
 496 1246 496 1220 530 1220 c 0
 584 1220 624 1386 624 1450 c 0
 624 1474 624 1500 590 1500 c 0
 536 1500 496 1334 496 1270 c 0
EndSplineSet
EndChar

StartChar: tilde
Encoding: 732 732 272
GlifName: tilde
Width: 895
VWidth: 0
Flags: HMW
LayerCount: 2
Fore
SplineSet
466 1278 m 0
 420 1278 370 1264 330 1200 c 1
 290 1200 l 1
 330 1370 400 1514 558 1514 c 4
 698 1514 778 1356 870 1356 c 0
 916 1356 966 1370 1006 1434 c 1
 1046 1434 l 1
 1006 1244 956 1120 798 1120 c 0
 644 1120 572 1278 466 1278 c 0
EndSplineSet
EndChar

StartChar: AE
Encoding: 198 198 274
GlifName: A_E_
Width: 2119
Flags: HMW
LayerCount: 2
Fore
SplineSet
1498 1500 m 1
 2308 1500 l 1
 2212 1090 l 1
 2172 1090 l 1
 2162 1304 2052 1460 1818 1460 c 2
 1498 1460 l 1
 1498 1500 l 1
1556 756 m 2
 1434 756 l 1
 1434 796 l 1
 1556 796 l 2
 1670 796 1792 912 1882 1046 c 1
 1922 1046 l 1
 1794 496 l 1
 1754 496 l 1
 1724 630 1670 756 1556 756 c 2
1980 0 m 1
 800 0 l 1
 800 40 l 1
 1470 40 l 2
 1744 40 1926 196 2044 450 c 1
 2084 450 l 1
 1980 0 l 1
1318 1500 m 1
 1748 1500 l 1
 1400 0 l 1
 970 0 l 1
 1318 1500 l 1
510 510 m 1
 1110 510 l 1
 1110 470 l 1
 510 470 l 1
 510 510 l 1
1290 1500 m 1
 1340 1500 l 1
 150 0 l 1
 90 0 l 1
 1290 1500 l 1
-50 40 m 1
 390 40 l 1
 390 0 l 1
 -50 0 l 1
 -50 40 l 1
EndSplineSet
EndChar

StartChar: Eth
Encoding: 208 208 275
GlifName: E_th
Width: 1639
Flags: HMW
LayerCount: 2
Fore
SplineSet
158 770 m 1
 962 770 l 1
 962 730 l 1
 158 730 l 1
 158 770 l 1
468 1500 m 1
 898 1500 l 1
 558 0 l 1
 128 0 l 1
 468 1500 l 1
778 0 m 2
 -52 0 l 1
 -52 40 l 1
 666 40 l 6
 1026 40 1213 729 1213 1153 c 0
 1213 1337 1205 1460 957 1460 c 2
 268 1460 l 1
 268 1500 l 1
 1118 1500 l 2
 1444 1500 1668 1282 1668 956 c 0
 1668 410 1264 0 778 0 c 2
EndSplineSet
EndChar

StartChar: ae
Encoding: 230 230 277
GlifName: ae
Width: 1825
VWidth: 2309
Flags: HMW
LayerCount: 2
Fore
SplineSet
548 522 m 2
 736 522 l 1
 736 482 l 1
 668 482 l 2
 556 482 426 320 426 136 c 0
 426 42 450 20 480 20 c 0
 574 20 632 166 676 362 c 2
 732 610 l 2
 760 738 746 898 606 898 c 0
 558 898 508 886 480 876 c 1
 536 870 648 860 648 736 c 0
 648 636 560 542 430 542 c 0
 290 542 226 600 226 692 c 0
 226 816 404 936 626 936 c 0
 886 936 1084 872 1052 610 c 1
 986 362 l 1
 940 114 642 -20 380 -20 c 0
 182 -20 36 38 36 186 c 0
 36 374 224 522 548 522 c 2
1466 764 m 0
 1466 838 1454 904 1412 904 c 0
 1334 904 1178 568 1178 240 c 0
 1178 112 1210 50 1308 50 c 0
 1414 50 1554 146 1670 286 c 1
 1708 286 l 1
 1610 132 1430 -20 1148 -20 c 0
 986 -20 830 80 830 320 c 1
 870 310 l 1
 874 690 1132 940 1452 940 c 4
 1616 940 1818 888 1818 724 c 0
 1818 404 1222 384 1160 384 c 1
 1160 424 l 1
 1218 424 1466 516 1466 764 c 0
EndSplineSet
EndChar

StartChar: perthousand
Encoding: 8240 8240 285
GlifName: perthousand
Width: 3039
Flags: HMW
LayerCount: 2
Fore
SplineSet
2500 -20 m 4
 2274 -20 2100 74 2100 280 c 4
 2100 606 2374 860 2680 860 c 4
 2906 860 3080 766 3080 560 c 4
 3080 234 2806 -20 2500 -20 c 4
2700 820 m 4
 2612 820 2440 274 2440 110 c 4
 2440 66 2452 20 2480 20 c 4
 2568 20 2730 576 2730 740 c 4
 2730 784 2728 820 2700 820 c 4
1460 -20 m 4
 1234 -20 1060 74 1060 280 c 4
 1060 606 1334 860 1640 860 c 4
 1866 860 2040 766 2040 560 c 4
 2040 234 1766 -20 1460 -20 c 4
1660 820 m 4
 1572 820 1400 274 1400 110 c 4
 1400 66 1412 20 1440 20 c 4
 1528 20 1690 576 1690 740 c 4
 1690 784 1688 820 1660 820 c 4
1736 1500 m 5
 1790 1500 l 5
 440 0 l 5
 386 0 l 5
 1736 1500 l 5
550 640 m 4
 324 640 150 734 150 940 c 4
 150 1266 424 1520 730 1520 c 4
 956 1520 1130 1426 1130 1220 c 4
 1130 894 856 640 550 640 c 4
750 1480 m 4
 662 1480 490 934 490 770 c 4
 490 726 502 680 530 680 c 4
 618 680 780 1236 780 1400 c 4
 780 1444 778 1480 750 1480 c 4
EndSplineSet
EndChar

StartChar: uni2031
Encoding: 8241 8241 286
GlifName: uni2031
Width: 4079
Flags: HMW
LayerCount: 2
Fore
SplineSet
3540 -20 m 0
 3314 -20 3140 74 3140 280 c 0
 3140 606 3414 860 3720 860 c 0
 3946 860 4120 766 4120 560 c 0
 4120 234 3846 -20 3540 -20 c 0
3740 820 m 0
 3652 820 3480 274 3480 110 c 0
 3480 66 3492 20 3520 20 c 0
 3608 20 3770 576 3770 740 c 0
 3770 784 3768 820 3740 820 c 0
2500 -20 m 0
 2274 -20 2100 74 2100 280 c 0
 2100 606 2374 860 2680 860 c 0
 2906 860 3080 766 3080 560 c 0
 3080 234 2806 -20 2500 -20 c 0
2700 820 m 0
 2612 820 2440 274 2440 110 c 0
 2440 66 2452 20 2480 20 c 0
 2568 20 2730 576 2730 740 c 0
 2730 784 2728 820 2700 820 c 0
1460 -20 m 0
 1234 -20 1060 74 1060 280 c 0
 1060 606 1334 860 1640 860 c 0
 1866 860 2040 766 2040 560 c 0
 2040 234 1766 -20 1460 -20 c 0
1660 820 m 0
 1572 820 1400 274 1400 110 c 0
 1400 66 1412 20 1440 20 c 0
 1528 20 1690 576 1690 740 c 0
 1690 784 1688 820 1660 820 c 0
1736 1500 m 1
 1790 1500 l 1
 440 0 l 1
 386 0 l 1
 1736 1500 l 1
550 640 m 0
 324 640 150 734 150 940 c 0
 150 1266 424 1520 730 1520 c 0
 956 1520 1130 1426 1130 1220 c 0
 1130 894 856 640 550 640 c 0
750 1480 m 0
 662 1480 490 934 490 770 c 0
 490 726 502 680 530 680 c 0
 618 680 780 1236 780 1400 c 0
 780 1444 778 1480 750 1480 c 0
EndSplineSet
EndChar

StartChar: uniFB00
Encoding: 64256 64256 290
GlifName: uniF_B_00
Width: 1667
VWidth: 2309
Flags: HMW
LayerCount: 2
Fore
SplineSet
172 920 m 1
 1672 920 l 1
 1672 880 l 1
 172 880 l 1
 172 920 l 1
1826 1438 m 1
 1802 1452 1744 1476 1680 1476 c 0
 1540 1476 1454 1324 1412 1080 c 2
 1238 76 l 2
 1170 -312 902 -420 642 -420 c 0
 420 -420 288 -286 288 -162 c 0
 288 -40 360 42 480 42 c 0
 590 42 694 -26 694 -146 c 0
 694 -266 600 -344 502 -344 c 0
 482 -344 454 -338 450 -338 c 1
 474 -352 532 -376 596 -376 c 0
 736 -376 822 -224 864 20 c 2
 1038 1024 l 2
 1106 1412 1374 1520 1634 1520 c 0
 1856 1520 1988 1386 1988 1262 c 0
 1988 1140 1916 1058 1796 1058 c 0
 1686 1058 1582 1126 1582 1246 c 0
 1582 1366 1676 1444 1774 1444 c 0
 1790 1444 1812 1440 1826 1438 c 1
1128 1338 m 1
 1104 1352 1046 1376 982 1376 c 0
 842 1376 774 1324 732 1080 c 2
 540 -24 l 2
 472 -412 204 -520 -56 -520 c 0
 -278 -520 -410 -386 -410 -262 c 0
 -410 -140 -338 -58 -218 -58 c 0
 -108 -58 -4 -126 -4 -246 c 0
 -4 -366 -98 -444 -196 -444 c 0
 -216 -444 -244 -438 -248 -438 c 1
 -224 -452 -166 -476 -102 -476 c 0
 38 -476 124 -324 166 -80 c 2
 340 924 l 2
 408 1312 676 1420 936 1420 c 0
 1158 1420 1290 1286 1290 1162 c 0
 1290 1040 1218 958 1098 958 c 0
 988 958 884 1026 884 1146 c 0
 884 1266 978 1344 1076 1344 c 0
 1092 1344 1114 1342 1128 1338 c 1
EndSplineSet
Ligature2: "'liga' Standard Ligatures lookup 0-1" f f
LCarets2: 1 0
EndChar

StartChar: uniFB01
Encoding: 64257 64257 291
GlifName: uniF_B_01
Width: 1567
VWidth: 2309
Flags: HMW
LayerCount: 2
Fore
SplineSet
1528 326 m 1
 1452 126 1294 -20 1072 -20 c 0
 918 -20 840 26 840 166 c 0
 840 176 840 198 844 210 c 2
 1014 880 l 1
 172 880 l 1
 172 920 l 1
 1404 920 l 1
 1210 152 l 2
 1208 140 1206 126 1206 116 c 0
 1206 94 1216 78 1242 78 c 0
 1330 78 1442 206 1488 338 c 1
 1528 326 l 1
1246 1438 m 1
 1222 1452 1164 1476 1080 1476 c 0
 920 1476 774 1324 732 1080 c 2
 540 -24 l 2
 472 -412 204 -520 -56 -520 c 0
 -278 -520 -410 -386 -410 -262 c 0
 -410 -140 -338 -58 -218 -58 c 0
 -108 -58 -4 -126 -4 -246 c 0
 -4 -366 -98 -444 -196 -444 c 0
 -216 -444 -244 -438 -248 -438 c 1
 -224 -452 -166 -476 -102 -476 c 0
 38 -476 124 -324 166 -80 c 2
 358 1024 l 2
 426 1412 734 1520 1034 1520 c 0
 1296 1520 1408 1386 1408 1262 c 0
 1408 1140 1336 1058 1216 1058 c 0
 1106 1058 1002 1126 1002 1246 c 0
 1002 1366 1096 1444 1194 1444 c 0
 1208 1444 1236 1440 1246 1438 c 1
EndSplineSet
Ligature2: "'liga' Standard Ligatures lookup 0-1" f i
LCarets2: 1 0
EndChar

StartChar: uniFB02
Encoding: 64258 64258 292
GlifName: uniF_B_02
Width: 1677
VWidth: 2309
Flags: HMW
LayerCount: 2
Fore
SplineSet
1638 326 m 1
 1562 126 1404 -20 1182 -20 c 0
 1028 -20 950 26 950 166 c 0
 950 176 952 198 954 210 c 2
 1240 1460 l 1
 1638 1540 l 1
 1320 152 l 2
 1318 140 1316 126 1316 116 c 0
 1316 94 1326 78 1352 78 c 0
 1440 78 1552 206 1598 338 c 1
 1638 326 l 1
172 920 m 1
 992 920 l 1
 992 880 l 1
 172 880 l 1
 172 920 l 1
1368 1262 m 0
 1368 1140 1296 1058 1176 1058 c 0
 1066 1058 962 1126 962 1246 c 0
 962 1366 1056 1444 1154 1444 c 0
 1168 1444 1196 1440 1206 1438 c 1
 1182 1452 1104 1476 1040 1476 c 0
 900 1476 774 1324 732 1080 c 2
 540 -24 l 2
 472 -412 204 -520 -56 -520 c 0
 -278 -520 -410 -386 -410 -262 c 0
 -410 -140 -338 -58 -218 -58 c 0
 -108 -58 -4 -126 -4 -246 c 0
 -4 -366 -98 -444 -196 -444 c 0
 -216 -444 -244 -438 -248 -438 c 1
 -224 -452 -166 -476 -102 -476 c 0
 38 -476 124 -324 166 -80 c 2
 358 1024 l 2
 428 1432 734 1520 1014 1520 c 0
 1228 1520 1368 1398 1368 1262 c 0
EndSplineSet
Ligature2: "'liga' Standard Ligatures lookup 0-1" f l
LCarets2: 1 0
EndChar

StartChar: uniFB03
Encoding: 64259 64259 293
GlifName: uniF_B_03
Width: 2247
VWidth: 2309
Flags: HMW
LayerCount: 2
Fore
SplineSet
2208 326 m 5
 2132 126 1974 -20 1752 -20 c 4
 1598 -20 1520 26 1520 166 c 4
 1520 176 1520 198 1524 210 c 6
 1694 880 l 5
 172 880 l 5
 172 920 l 5
 2084 920 l 5
 1890 152 l 6
 1888 140 1886 126 1886 116 c 4
 1886 94 1896 78 1922 78 c 4
 2010 78 2122 206 2168 338 c 5
 2208 326 l 5
2088 1262 m 4
 2088 1140 2016 1058 1896 1058 c 4
 1786 1058 1682 1126 1682 1246 c 4
 1682 1366 1776 1444 1874 1444 c 4
 1888 1444 1916 1440 1926 1438 c 5
 1902 1452 1844 1476 1760 1476 c 4
 1600 1476 1454 1324 1412 1080 c 6
 1238 76 l 6
 1170 -312 902 -420 642 -420 c 4
 420 -420 288 -286 288 -162 c 4
 288 -40 360 42 480 42 c 4
 590 42 694 -26 694 -146 c 4
 694 -266 600 -344 502 -344 c 4
 482 -344 454 -338 450 -338 c 5
 474 -352 532 -376 596 -376 c 4
 736 -376 822 -224 864 20 c 6
 1038 1024 l 6
 1106 1412 1414 1520 1714 1520 c 4
 1970 1520 2088 1384 2088 1262 c 4
1128 1338 m 5
 1104 1352 1046 1376 982 1376 c 4
 842 1376 774 1324 732 1080 c 6
 540 -24 l 6
 472 -412 204 -520 -56 -520 c 4
 -278 -520 -410 -386 -410 -262 c 4
 -410 -140 -338 -58 -218 -58 c 4
 -108 -58 -4 -126 -4 -246 c 4
 -4 -366 -98 -444 -196 -444 c 4
 -216 -444 -244 -438 -248 -438 c 5
 -224 -452 -166 -476 -102 -476 c 4
 38 -476 124 -324 166 -80 c 6
 340 924 l 6
 408 1312 676 1420 936 1420 c 4
 1158 1420 1290 1286 1290 1162 c 4
 1290 1040 1218 958 1098 958 c 4
 988 958 884 1026 884 1146 c 4
 884 1266 978 1344 1076 1344 c 4
 1094 1344 1114 1340 1128 1338 c 5
EndSplineSet
Ligature2: "'liga' Standard Ligatures lookup 0-1" f f i
LCarets2: 2 0 0
EndChar

StartChar: uniFB04
Encoding: 64260 64260 294
GlifName: uniF_B_04
Width: 2357
VWidth: 2309
Flags: HMW
LayerCount: 2
Fore
SplineSet
2318 326 m 1
 2242 126 2084 -20 1862 -20 c 0
 1708 -20 1630 26 1630 166 c 0
 1630 176 1632 198 1634 210 c 2
 1920 1460 l 1
 2318 1540 l 1
 2000 152 l 2
 1998 140 1996 126 1996 116 c 0
 1996 94 2006 78 2032 78 c 0
 2120 78 2232 206 2278 338 c 1
 2318 326 l 1
172 920 m 1
 1672 920 l 1
 1672 880 l 1
 172 880 l 1
 172 920 l 1
1886 1438 m 5
 1862 1452 1784 1476 1720 1476 c 0
 1580 1476 1454 1324 1412 1080 c 2
 1238 76 l 2
 1170 -312 902 -420 642 -420 c 0
 420 -420 288 -286 288 -162 c 0
 288 -40 360 42 480 42 c 0
 590 42 694 -26 694 -146 c 0
 694 -266 600 -344 502 -344 c 0
 482 -344 454 -338 450 -338 c 1
 474 -352 532 -376 596 -376 c 0
 736 -376 822 -224 864 20 c 2
 1038 1024 l 2
 1108 1432 1414 1520 1694 1520 c 0
 1916 1520 2048 1386 2048 1262 c 0
 2048 1140 1976 1058 1856 1058 c 0
 1746 1058 1642 1126 1642 1246 c 0
 1642 1366 1736 1444 1834 1444 c 0
 1850 1444 1874 1440 1886 1438 c 5
1128 1338 m 1
 1104 1352 1046 1376 982 1376 c 0
 842 1376 774 1324 732 1080 c 2
 540 -24 l 2
 472 -412 204 -520 -56 -520 c 0
 -278 -520 -410 -386 -410 -262 c 0
 -410 -140 -338 -58 -218 -58 c 0
 -108 -58 -4 -126 -4 -246 c 0
 -4 -366 -98 -444 -196 -444 c 0
 -216 -444 -244 -438 -248 -438 c 1
 -224 -452 -166 -476 -102 -476 c 0
 38 -476 124 -324 166 -80 c 2
 340 924 l 2
 408 1312 676 1420 936 1420 c 0
 1158 1420 1290 1286 1290 1162 c 0
 1290 1040 1218 958 1098 958 c 0
 988 958 884 1026 884 1146 c 0
 884 1266 978 1344 1076 1344 c 0
 1090 1344 1120 1340 1128 1338 c 1
EndSplineSet
Ligature2: "'liga' Standard Ligatures lookup 0-1" f f l
LCarets2: 2 0 0
EndChar

StartChar: ogonek
Encoding: 731 731 295
GlifName: ogonek
Width: 1099
Flags: HMW
LayerCount: 2
Fore
SplineSet
776 -226 m 1
 746 -282 648 -412 446 -412 c 0
 304 -412 196 -362 196 -262 c 0
 196 -102 486 26 688 86 c 1
 696 64 l 1
 634 22 556 -104 556 -230 c 0
 556 -304 572 -328 610 -328 c 0
 662 -328 722 -254 744 -212 c 1
 776 -226 l 1
EndSplineSet
EndChar

StartChar: dotlessi
Encoding: 305 305 296
GlifName: dotlessi
Width: 827
VWidth: 2309
Flags: HMW
LayerCount: 2
Fore
SplineSet
788 326 m 1
 712 126 554 -20 332 -20 c 0
 178 -20 100 26 100 166 c 0
 100 176 100 198 104 210 c 2
 274 880 l 1
 120 880 l 1
 120 920 l 1
 664 920 l 1
 470 152 l 2
 468 140 466 126 466 116 c 0
 466 94 476 78 502 78 c 0
 590 78 702 206 748 338 c 1
 788 326 l 1
EndSplineSet
EndChar

StartChar: uni0237
Encoding: 567 567 297
GlifName: uni0237
Width: 673
VWidth: 2309
Flags: HMW
LayerCount: 2
Fore
SplineSet
-284 -436 m 1
 -260 -456 -198 -472 -134 -472 c 0
 66 -472 34 -200 90 40 c 2
 286 880 l 1
 106 880 l 1
 106 920 l 1
 676 920 l 1
 480 -24 l 2
 428 -274 136 -520 -124 -520 c 0
 -306 -520 -470 -406 -470 -272 c 0
 -470 -150 -366 -58 -246 -58 c 0
 -136 -58 -44 -140 -44 -234 c 0
 -44 -348 -142 -440 -250 -440 c 0
 -256 -440 -272 -440 -284 -436 c 1
EndSplineSet
EndChar

StartChar: kgreenlandic
Encoding: 312 312 306
GlifName: kgreenlandic
Width: 1373
VWidth: 2309
Flags: HMW
LayerCount: 2
Fore
SplineSet
1314 326 m 1
 1238 126 1100 -20 898 -20 c 0
 744 -20 632 26 632 166 c 0
 632 176 634 198 636 210 c 2
 650 280 l 2
 674 396 724 518 676 518 c 0
 634 518 586 448 568 380 c 1
 538 380 l 1
 592 544 650 588 792 588 c 0
 930 588 1074 502 1014 242 c 2
 990 112 l 2
 990 108 988 98 988 94 c 0
 988 72 1002 62 1028 62 c 0
 1114 62 1228 206 1274 338 c 1
 1314 326 l 1
576 453 m 1
 598 484 l 1
 604 481 615 478 630 478 c 0
 710 478 744 596 796 724 c 0
 852 860 950 940 1070 940 c 0
 1200 940 1334 842 1334 698 c 0
 1334 588 1252 498 1142 498 c 0
 1032 498 962 592 962 678 c 0
 962 774 1042 852 1138 852 c 0
 1180 852 1222 836 1230 832 c 1
 1206 866 1142 900 1066 900 c 0
 980 900 890 842 838 712 c 0
 784 576 750 440 630 440 c 0
 598 440 582 450 576 453 c 1
303 880 m 1
 133 880 l 1
 133 920 l 1
 693 920 l 1
 480 0 l 1
 100 0 l 1
 303 880 l 1
EndSplineSet
EndChar

StartChar: breve
Encoding: 728 728 307
GlifName: breve
Width: 639
VWidth: 2309
Flags: HMW
LayerCount: 2
Fore
SplineSet
360 1518 m 5
 350 1444 432 1410 540 1410 c 4
 648 1410 768 1420 800 1518 c 5
 840 1518 l 5
 820 1396 760 1140 520 1140 c 4
 300 1140 300 1396 320 1518 c 5
 360 1518 l 5
EndSplineSet
EndChar

StartChar: thorn
Encoding: 254 254 318
GlifName: thorn
Width: 1299
VWidth: 2309
Flags: HMW
LayerCount: 2
Fore
SplineSet
532 290 m 0
 532 184 562 116 604 116 c 0
 692 116 842 410 842 678 c 0
 842 746 814 800 772 800 c 0
 670 800 532 498 532 290 c 0
500 290 m 0
 500 506 650 938 932 938 c 0
 1070 938 1250 858 1250 598 c 0
 1250 198 936 -20 738 -20 c 0
 586 -20 500 106 500 290 c 0
-190 -460 m 1
 460 -460 l 1
 460 -500 l 1
 -190 -500 l 1
 -190 -460 l 1
392 1460 m 5
 258 1460 l 5
 258 1500 l 5
 782 1500 l 5
 570 588 l 1
 520 426 l 1
 508 304 l 1
 320 -500 l 1
 -60 -500 l 1
 392 1460 l 5
EndSplineSet
EndChar

StartChar: Thorn
Encoding: 222 222 319
GlifName: T_horn
Width: 1469
Flags: HMW
LayerCount: 2
Fore
SplineSet
750 360 m 6
 530 360 l 5
 530 400 l 5
 650 400 l 6
 882 400 974 742 974 960 c 4
 974 1078 942 1160 850 1160 c 6
 520 1160 l 5
 520 1200 l 5
 950 1200 l 6
 1212 1200 1430 1120 1430 880 c 4
 1430 580 1152 360 750 360 c 6
-90 40 m 1
 700 40 l 1
 700 0 l 1
 -90 0 l 1
 -90 40 l 1
250 1500 m 1
 1040 1500 l 1
 1040 1460 l 1
 250 1460 l 1
 250 1500 l 1
420 1500 m 1
 850 1500 l 1
 500 0 l 1
 70 0 l 1
 420 1500 l 1
EndSplineSet
EndChar

StartChar: Lslash
Encoding: 321 321 324
GlifName: L_slash
Width: 1303
Flags: HMW
LayerCount: 2
Fore
SplineSet
90 720 m 5
 980 1160 l 5
 980 1110 l 5
 90 670 l 5
 90 720 l 5
EndSplineSet
Refer: 23 76 N 1 0 0 1 0 0 2
EndChar

StartChar: lslash
Encoding: 322 322 325
GlifName: lslash
Width: 827
VWidth: 2309
Flags: HMW
LayerCount: 2
Fore
SplineSet
60 720 m 1
 870 1160 l 5
 870 1110 l 5
 60 670 l 1
 60 720 l 1
EndSplineSet
Refer: 49 108 N 1 0 0 1 0 0 2
EndChar

StartChar: eth
Encoding: 240 240 329
GlifName: eth
Width: 1319
VWidth: 2309
Flags: HMW
LayerCount: 2
Fore
SplineSet
520 1260 m 1
 1440 1260 l 1
 1440 1220 l 1
 520 1220 l 1
 520 1260 l 1
1314 760 m 0
 1314 340 934 -20 572 -20 c 0
 270 -20 80 120 80 380 c 0
 80 760 456 980 698 980 c 0
 880 980 902 914 882 680 c 1
 848 820 l 1
 848 900 816 922 782 922 c 0
 624 922 494 388 494 180 c 0
 494 52 508 20 566 20 c 0
 684 20 848 492 848 820 c 1
 874 740 l 1
 934 1144 818 1486 490 1486 c 1
 490 1520 l 1
 1036 1520 1314 1206 1314 760 c 0
EndSplineSet
EndChar

StartChar: OE
Encoding: 338 338 330
GlifName: O_E_
Width: 2157
Flags: HMW
LayerCount: 2
Fore
SplineSet
1078 1500 m 1
 1078 1460 l 1
 750 1460 538 774 538 310 c 0
 538 126 592 40 740 40 c 1
 740 0 l 1
 434 0 98 104 98 490 c 4
 98 1116 572 1500 1078 1500 c 1
EndSplineSet
Refer: 16 69 N 1 0 0 1 840 0 2
EndChar

StartChar: germandbls
Encoding: 223 223 332
GlifName: germandbls
Width: 1701
VWidth: 2309
Flags: HMW
LayerCount: 2
Fore
SplineSet
1642 480 m 4
 1642 100 1274 -20 992 -20 c 4
 774 -20 696 148 696 312 c 4
 696 444 780 562 910 562 c 4
 1030 562 1118 482 1118 370 c 4
 1118 266 1002 180 904 180 c 4
 802 180 786 204 742 224 c 5
 768 126 838 24 972 24 c 4
 1150 24 1220 312 1220 500 c 4
 1220 688 1144 792 1026 792 c 5
 1026 820 l 5
 1388 820 1642 740 1642 480 c 4
-50 40 m 5
 730 40 l 5
 730 0 l 5
 -50 0 l 5
 -50 40 l 5
1026 802 m 5
 1026 830 l 5
 1284 830 1340 1094 1340 1262 c 4
 1340 1406 1274 1486 1186 1486 c 4
 898 1486 832 1232 770 962 c 6
 550 0 l 5
 130 0 l 5
 360 982 l 6
 446 1366 760 1520 1206 1520 c 4
 1472 1520 1772 1448 1772 1202 c 4
 1772 942 1428 802 1026 802 c 5
EndSplineSet
EndChar

StartChar: uni0212
Encoding: 530 530 333
GlifName: uni0212
Width: 1639
VWidth: 0
Flags: HMW
LayerCount: 2
Fore
SplineSet
1170 1640 m 5
 1180 1714 1098 1748 990 1748 c 4
 882 1748 762 1738 730 1640 c 5
 690 1640 l 5
 710 1762 770 2018 1010 2018 c 4
 1230 2018 1230 1762 1210 1640 c 5
 1170 1640 l 5
EndSplineSet
Refer: 29 82 N 1 0 0 1 0 0 3
EndChar

StartChar: uni0213
Encoding: 531 531 334
GlifName: uni0213
Width: 1133
VWidth: 0
Flags: HMW
LayerCount: 2
Fore
SplineSet
920 1080 m 5
 930 1154 848 1188 740 1188 c 4
 632 1188 512 1178 480 1080 c 5
 440 1080 l 5
 460 1202 520 1458 760 1458 c 4
 980 1458 980 1202 960 1080 c 5
 920 1080 l 5
EndSplineSet
Refer: 55 114 N 1 0 0 1 0 0 3
EndChar

StartChar: circumflex
Encoding: 710 710 335
GlifName: circumflex
Width: 969
Flags: HMW
LayerCount: 2
Fore
SplineSet
744 1350 m 5
 340 1200 l 5
 320 1220 l 5
 644 1540 l 5
 854 1540 l 5
 1090 1220 l 5
 1070 1200 l 5
 744 1350 l 5
EndSplineSet
EndChar

StartChar: caron
Encoding: 711 711 336
GlifName: caron
Width: 969
Flags: HMW
LayerCount: 2
Fore
SplineSet
630 1470 m 1
 1034 1620 l 1
 1054 1600 l 1
 730 1280 l 1
 520 1280 l 1
 284 1600 l 1
 304 1620 l 1
 630 1470 l 1
EndSplineSet
EndChar

StartChar: pi
Encoding: 960 960 337
GlifName: pi
Width: 1401
VWidth: 2309
Flags: HMW
LayerCount: 2
Fore
SplineSet
248 -20 m 0
 146 -20 70 46 70 136 c 0
 70 412 392 186 520 598 c 2
 614 900 l 1
 726 900 l 1
 616 486 l 2
 538 190 524 -20 248 -20 c 0
1292 206 m 1
 1226 66 1122 -20 936 -20 c 0
 742 -20 650 128 682 258 c 2
 832 840 l 1
 1252 840 l 1
 1086 222 l 2
 1066 148 1098 130 1146 130 c 0
 1182 130 1224 154 1262 222 c 1
 1292 206 l 1
1432 920 m 1
 1322 540 l 1
 162 540 l 1
 126 390 l 1
 86 390 l 1
 214 920 l 1
 1432 920 l 1
EndSplineSet
EndChar

StartChar: uni1E9E
Encoding: 7838 7838 338
GlifName: uni1E_9E_
Width: 1821
VWidth: 2309
Flags: HMW
LayerCount: 2
Fore
SplineSet
756 312 m 4
 756 444 840 562 970 562 c 0
 1090 562 1178 482 1178 370 c 0
 1178 266 1062 180 964 180 c 0
 902 180 848 200 814 224 c 1
 860 86 958 24 1092 24 c 0
 1270 24 1340 312 1340 500 c 0
 1340 688 1264 792 1146 792 c 1
 1146 820 l 1
 1508 820 1762 740 1762 480 c 0
 1762 100 1394 -20 1112 -20 c 0
 864 -20 756 132 756 312 c 4
-50 40 m 1
 730 40 l 1
 730 0 l 1
 -50 0 l 1
 -50 40 l 1
1146 802 m 1
 1146 830 l 1
 1404 830 1460 1094 1460 1262 c 0
 1460 1406 1374 1486 1246 1486 c 0
 918 1486 832 1232 770 962 c 2
 550 0 l 1
 130 0 l 1
 360 982 l 2
 446 1366 760 1520 1266 1520 c 0
 1592 1520 1892 1448 1892 1202 c 0
 1892 942 1548 802 1146 802 c 1
EndSplineSet
EndChar

StartChar: uni203D
Encoding: 8253 8253 339
GlifName: uni203D_
Width: 1279
Flags: HMW
LayerCount: 2
Fore
SplineSet
916 1118 m 0
 884 904 678 856 598 556 c 1
 558 556 l 1
 618 856 560 886 560 1038 c 0
 560 1190 610 1296 748 1296 c 0
 858 1296 932 1220 916 1118 c 0
1008 1220 m 0
 1008 1368 970 1478 772 1478 c 0
 544 1478 324 1342 264 1266 c 1
 296 1280 352 1284 374 1284 c 0
 452 1284 528 1220 528 1100 c 0
 528 960 404 898 314 898 c 0
 214 898 140 980 140 1102 c 0
 140 1306 488 1520 792 1520 c 0
 1094 1520 1370 1440 1370 1180 c 0
 1370 860 956 670 594 670 c 1
 594 698 l 1
 828 760 1008 974 1008 1220 c 0
EndSplineSet
Refer: 1 46 S 1 0 0 1 218 0 2
EndChar

StartChar: R.alt
Encoding: 65536 -1 340
GlifName: R_.alt
Width: 1619
Flags: HMW
LayerCount: 2
Fore
SplineSet
1460 0 m 1
 1428 0 1292 0 1220 0 c 0
 574 0 1222 750 750 750 c 2
 640 750 l 1
 640 770 l 1
 890 770 l 2
 1676 770 1144 40 1410 40 c 0
 1432 40 1460 40 1460 40 c 1
 1460 0 l 1
460 1500 m 1
 890 1500 l 1
 540 0 l 1
 110 0 l 1
 460 1500 l 1
-70 40 m 1
 760 40 l 1
 760 0 l 1
 -70 0 l 1
 -70 40 l 1
870 764 m 2
 640 764 l 1
 640 790 l 1
 770 790 l 2
 1062 790 1130 1122 1130 1280 c 0
 1130 1378 1082 1460 930 1460 c 2
 260 1460 l 1
 260 1500 l 1
 1070 1500 l 2
 1332 1500 1560 1420 1560 1200 c 0
 1560 920 1272 764 870 764 c 2
EndSplineSet
EndChar

StartChar: J.alt
Encoding: 65537 -1 341
GlifName: J_.alt
Width: 1441
Flags: HMW
LayerCount: 2
Fore
SplineSet
792 1500 m 1
 1672 1500 l 1
 1672 1460 l 1
 792 1460 l 1
 792 1500 l 1
1032 1500 m 1
 1472 1500 l 1
 1252 560 l 2
 1180 256 744 -20 422 -20 c 0
 208 -20 10 128 10 368 c 0
 10 552 124 680 284 680 c 0
 434 680 536 584 536 432 c 0
 536 302 422 186 274 186 c 0
 170 186 78 256 60 290 c 5
 80 168 226 20 422 20 c 0
 664 20 754 232 812 500 c 2
 1032 1500 l 1
EndSplineSet
EndChar

StartChar: four.alt
Encoding: 65538 -1 342
GlifName: four.alt
Width: 1429
VWidth: 2309
Flags: HMW
LayerCount: 2
Fore
SplineSet
1280 996 m 1
 1058 -2 l 1
 628 -2 l 1
 820 856 l 1
 960 856 1180 936 1280 996 c 1
1224 40 m 1
 1224 0 l 1
 454 0 l 1
 454 40 l 1
 1224 40 l 1
126 410 m 5
 1330 410 l 1
 1330 370 l 1
 30 370 l 1
 370 770 800 1180 900 1500 c 1
 1376 1500 l 1
 1318 1130 406 738 126 410 c 5
EndSplineSet
EndChar

StartChar: fj.lig
Encoding: 65539 -1 343
GlifName: fj.lig
Width: 1567
VWidth: 2309
Flags: HMW
LayerCount: 2
Fore
SplineSet
842 140 m 2
 1016 880 l 1
 172 880 l 1
 172 920 l 1
 1406 920 l 1
 1232 76 l 2
 1180 -174 888 -420 628 -420 c 0
 446 -420 282 -306 282 -172 c 0
 282 -50 386 42 506 42 c 0
 616 42 708 -40 708 -134 c 0
 708 -248 610 -340 502 -340 c 0
 496 -340 480 -340 468 -336 c 1
 492 -356 554 -372 618 -372 c 0
 818 -372 786 -100 842 140 c 2
1246 1438 m 5
 1222 1452 1164 1476 1080 1476 c 0
 920 1476 774 1324 732 1080 c 2
 540 -24 l 2
 472 -412 204 -520 -56 -520 c 0
 -278 -520 -410 -386 -410 -262 c 0
 -410 -140 -338 -58 -218 -58 c 0
 -108 -58 -4 -126 -4 -246 c 0
 -4 -366 -98 -444 -196 -444 c 0
 -216 -444 -244 -438 -248 -438 c 1
 -224 -452 -166 -476 -102 -476 c 0
 38 -476 124 -324 166 -80 c 2
 358 1024 l 2
 426 1412 734 1520 1034 1520 c 0
 1296 1520 1408 1386 1408 1262 c 0
 1408 1140 1336 1058 1216 1058 c 0
 1106 1058 1002 1126 1002 1246 c 0
 1002 1366 1096 1444 1194 1444 c 0
 1208 1444 1236 1440 1246 1438 c 5
EndSplineSet
LCarets2: 1 0
Ligature2: "'liga' Standard Ligatures lookup 0-1" f j
EndChar

StartChar: v.alt
Encoding: 65540 -1 344
GlifName: v.alt
Width: 1211
VWidth: 2309
Flags: HW
HStem: 710 228<650 824>
VStem: 60 170<626 778> 246 182<79 349> 862 40<551 797>
LayerCount: 2
Fore
SplineSet
530 950 m 1
 544 924 l 1
 462 878 430 826 430 746 c 0
 430 600 668 518 668 270 c 0
 668 236 660 158 656 112 c 1
 958 268 1162 424 1162 688 c 0
 1162 692 1162 696 1160 700 c 1
 1154 662 1062 510 936 510 c 0
 796 510 724 614 724 724 c 0
 724 844 812 938 946 938 c 0
 1132 938 1202 810 1202 688 c 0
 1202 350 872 166 482 -24 c 1
 256 8 l 1
 260 52 286 172 286 212 c 0
 286 366 60 498 60 646 c 0
 60 806 270 882 530 950 c 1
EndSplineSet
EndChar

StartChar: uni2116
Encoding: 8470 8470 345
GlifName: uni2116
Width: 2411
Flags: HW
HStem: 610 40<1608 2086> 760 40<1814 1948> 1480 40<1974 2108>
VStem: 1608 158<861 1211> 2156 158<1069 1419>
LayerCount: 2
Fore
SplineSet
1728 650 m 5
 2268 650 l 5
 2266 610 l 5
 1726 610 l 5
 1728 650 l 5
2206 1520 m 0
 2394 1520 2530 1434 2530 1248 c 0
 2530 924 2272 760 2030 760 c 0
 1842 760 1706 846 1706 1032 c 0
 1706 1356 1964 1520 2206 1520 c 0
1974 908 m 0
 1974 836 1996 800 2040 800 c 0
 2142 800 2262 1164 2262 1372 c 0
 2262 1444 2240 1480 2196 1480 c 0
 2094 1480 1974 1116 1974 908 c 0
EndSplineSet
Refer: 25 78 N 1 0 0 1 52 0 2
EndChar

StartChar: Euro
Encoding: 8364 8364 346
GlifName: E_uro
Width: 1639
Flags: HW
LayerCount: 2
Fore
SplineSet
1540 1360 m 5
 1502 1390 1406 1478 1238 1478 c 4
 860 1478 698 758 698 330 c 4
 698 102 832 36 970 36 c 4
 1142 36 1352 190 1422 356 c 5
 1466 356 l 5
 1394 162 1148 -20 906 -20 c 4
 624 -20 266 130 266 550 c 4
 266 1130 696 1520 1218 1520 c 4
 1462 1520 1690 1336 1690 1172 c 4
 1690 1030 1576 948 1476 948 c 4
 1386 948 1262 1020 1262 1160 c 4
 1262 1290 1378 1370 1476 1370 c 4
 1498 1370 1532 1362 1540 1360 c 5
EndSplineSet
Refer: 88 61 N 1 0 0 1 -60 -140 2
EndChar

